ply
format ascii 1.0
element vertex 88
property float x      
property float y           
property float z 
element face 132  
property list uchar int vertex_index
end_header
-5.0 -5.0 -0.2
-5.0 -5.0 0.0
-5.0 5.0 0.0
-5.0 5.0 -0.2
5.0 -5.0 -0.2
5.0 -5.0 0.0
5.0 5.0 0.0
5.0 5.0 -0.2
-0.15 -2.85 0.0
-0.15 -2.85 0.2
-0.15 2.85 0.2
-0.15 2.85 0.0
0.15 -2.85 0.0
0.15 -2.85 0.2
0.15 2.85 0.2
0.15 2.85 0.0
0.15 -2.85 0.20000000000000004
0.15 -2.85 0.4
0.15 2.85 0.4
0.15 2.85 0.20000000000000004
0.44999999999999996 -2.85 0.20000000000000004
0.44999999999999996 -2.85 0.4
0.44999999999999996 2.85 0.4
0.44999999999999996 2.85 0.20000000000000004
0.44999999999999996 -2.85 0.4
0.44999999999999996 -2.85 0.6
0.44999999999999996 2.85 0.6
0.44999999999999996 2.85 0.4
0.75 -2.85 0.4
0.75 -2.85 0.6
0.75 2.85 0.6
0.75 2.85 0.4
0.7499999999999999 -2.85 0.6000000000000001
0.7499999999999999 -2.85 0.8
0.7499999999999999 2.85 0.8
0.7499999999999999 2.85 0.6000000000000001
1.0499999999999998 -2.85 0.6000000000000001
1.0499999999999998 -2.85 0.8
1.0499999999999998 2.85 0.8
1.0499999999999998 2.85 0.6000000000000001
1.05 -2.85 0.8
1.05 -2.85 1.0
1.05 2.85 1.0
1.05 2.85 0.8
1.3499999999999999 -2.85 0.8
1.3499999999999999 -2.85 1.0
1.3499999999999999 2.85 1.0
1.3499999999999999 2.85 0.8
1.35 -2.85 1.0
1.35 -2.85 1.2000000000000002
1.35 2.85 1.2000000000000002
1.35 2.85 1.0
1.65 -2.85 1.0
1.65 -2.85 1.2000000000000002
1.65 2.85 1.2000000000000002
1.65 2.85 1.0
1.65 -2.85 1.2000000000000002
1.65 -2.85 1.4000000000000004
1.65 2.85 1.4000000000000004
1.65 2.85 1.2000000000000002
1.9499999999999997 -2.85 1.2000000000000002
1.9499999999999997 -2.85 1.4000000000000004
1.9499999999999997 2.85 1.4000000000000004
1.9499999999999997 2.85 1.2000000000000002
1.9500000000000002 -2.85 1.4000000000000001
1.9500000000000002 -2.85 1.6000000000000003
1.9500000000000002 2.85 1.6000000000000003
1.9500000000000002 2.85 1.4000000000000001
2.25 -2.85 1.4000000000000001
2.25 -2.85 1.6000000000000003
2.25 2.85 1.6000000000000003
2.25 2.85 1.4000000000000001
2.25 -2.85 1.6
2.25 -2.85 1.8000000000000003
2.25 2.85 1.8000000000000003
2.25 2.85 1.6
2.55 -2.85 1.6
2.55 -2.85 1.8000000000000003
2.55 2.85 1.8000000000000003
2.55 2.85 1.6
2.55 -2.85 1.8
2.55 -2.85 2.0
2.55 2.85 2.0
2.55 2.85 1.8
3.8499999999999996 -2.85 1.8
3.8499999999999996 -2.85 2.0
3.8499999999999996 2.85 2.0
3.8499999999999996 2.85 1.8
3 0 1 2 
3 0 2 3 
3 7 6 5 
3 7 5 4 
3 0 4 5 
3 0 5 1 
3 1 5 6 
3 1 6 2 
3 2 6 7 
3 2 7 3 
3 3 7 4 
3 3 4 0 
3 8 9 10 
3 8 10 11 
3 15 14 13 
3 15 13 12 
3 8 12 13 
3 8 13 9 
3 9 13 14 
3 9 14 10 
3 10 14 15 
3 10 15 11 
3 11 15 12 
3 11 12 8 
3 16 17 18 
3 16 18 19 
3 23 22 21 
3 23 21 20 
3 16 20 21 
3 16 21 17 
3 17 21 22 
3 17 22 18 
3 18 22 23 
3 18 23 19 
3 19 23 20 
3 19 20 16 
3 24 25 26 
3 24 26 27 
3 31 30 29 
3 31 29 28 
3 24 28 29 
3 24 29 25 
3 25 29 30 
3 25 30 26 
3 26 30 31 
3 26 31 27 
3 27 31 28 
3 27 28 24 
3 32 33 34 
3 32 34 35 
3 39 38 37 
3 39 37 36 
3 32 36 37 
3 32 37 33 
3 33 37 38 
3 33 38 34 
3 34 38 39 
3 34 39 35 
3 35 39 36 
3 35 36 32 
3 40 41 42 
3 40 42 43 
3 47 46 45 
3 47 45 44 
3 40 44 45 
3 40 45 41 
3 41 45 46 
3 41 46 42 
3 42 46 47 
3 42 47 43 
3 43 47 44 
3 43 44 40 
3 48 49 50 
3 48 50 51 
3 55 54 53 
3 55 53 52 
3 48 52 53 
3 48 53 49 
3 49 53 54 
3 49 54 50 
3 50 54 55 
3 50 55 51 
3 51 55 52 
3 51 52 48 
3 56 57 58 
3 56 58 59 
3 63 62 61 
3 63 61 60 
3 56 60 61 
3 56 61 57 
3 57 61 62 
3 57 62 58 
3 58 62 63 
3 58 63 59 
3 59 63 60 
3 59 60 56 
3 64 65 66 
3 64 66 67 
3 71 70 69 
3 71 69 68 
3 64 68 69 
3 64 69 65 
3 65 69 70 
3 65 70 66 
3 66 70 71 
3 66 71 67 
3 67 71 68 
3 67 68 64 
3 72 73 74 
3 72 74 75 
3 79 78 77 
3 79 77 76 
3 72 76 77 
3 72 77 73 
3 73 77 78 
3 73 78 74 
3 74 78 79 
3 74 79 75 
3 75 79 76 
3 75 76 72 
3 80 81 82 
3 80 82 83 
3 87 86 85 
3 87 85 84 
3 80 84 85 
3 80 85 81 
3 81 85 86 
3 81 86 82 
3 82 86 87 
3 82 87 83 
3 83 87 84 
3 83 84 80 
