ply
format ascii 1.0
element vertex 488
property float x      
property float y           
property float z 
element face 732  
property list uchar int vertex_index
end_header
0.493677771836334 -1.8627563812625496 -0.452776648695207
0.493677771836334 -1.8627563812625496 -0.052776648695206985
0.493677771836334 -1.3627563812625496 -0.052776648695206985
0.493677771836334 -1.3627563812625496 -0.452776648695207
0.993677771836334 -1.8627563812625496 -0.452776648695207
0.993677771836334 -1.8627563812625496 -0.052776648695206985
0.993677771836334 -1.3627563812625496 -0.052776648695206985
0.993677771836334 -1.3627563812625496 -0.452776648695207
1.2380982300945202 1.3964904261400477 -0.504256779050002
1.2380982300945202 1.3964904261400477 -0.10425677905000197
1.2380982300945202 1.8964904261400477 -0.10425677905000197
1.2380982300945202 1.8964904261400477 -0.504256779050002
1.7380982300945202 1.3964904261400477 -0.504256779050002
1.7380982300945202 1.3964904261400477 -0.10425677905000197
1.7380982300945202 1.8964904261400477 -0.10425677905000197
1.7380982300945202 1.8964904261400477 -0.504256779050002
-0.13172606458188185 0.46237894593424533 -0.2146603582596096
-0.13172606458188185 0.46237894593424533 0.18533964174039042
-0.13172606458188185 0.9623789459342453 0.18533964174039042
-0.13172606458188185 0.9623789459342453 -0.2146603582596096
0.36827393541811815 0.46237894593424533 -0.2146603582596096
0.36827393541811815 0.46237894593424533 0.18533964174039042
0.36827393541811815 0.9623789459342453 0.18533964174039042
0.36827393541811815 0.9623789459342453 -0.2146603582596096
0.2604536889061839 0.028991936367455562 -0.2512396291026499
0.2604536889061839 0.028991936367455562 0.1487603708973501
0.2604536889061839 0.5289919363674556 0.1487603708973501
0.2604536889061839 0.5289919363674556 -0.2512396291026499
0.7604536889061839 0.028991936367455562 -0.2512396291026499
0.7604536889061839 0.028991936367455562 0.1487603708973501
0.7604536889061839 0.5289919363674556 0.1487603708973501
0.7604536889061839 0.5289919363674556 -0.2512396291026499
2.17697211799352 -1.013673867564762 -0.388925136147819
2.17697211799352 -1.013673867564762 0.01107486385218101
2.17697211799352 -0.5136738675647621 0.01107486385218101
2.17697211799352 -0.5136738675647621 -0.388925136147819
2.67697211799352 -1.013673867564762 -0.388925136147819
2.67697211799352 -1.013673867564762 0.01107486385218101
2.67697211799352 -0.5136738675647621 0.01107486385218101
2.67697211799352 -0.5136738675647621 -0.388925136147819
2.353858696514105 -0.7538112232556378 -0.2950623827507022
2.353858696514105 -0.7538112232556378 0.10493761724929784
2.353858696514105 -0.25381122325563776 0.10493761724929784
2.353858696514105 -0.25381122325563776 -0.2950623827507022
2.853858696514105 -0.7538112232556378 -0.2950623827507022
2.853858696514105 -0.7538112232556378 0.10493761724929784
2.853858696514105 -0.25381122325563776 0.10493761724929784
2.853858696514105 -0.25381122325563776 -0.2950623827507022
0.6502463215936712 2.666325992106958 -0.41158756476848635
0.6502463215936712 2.666325992106958 -0.011587564768486297
0.6502463215936712 3.166325992106958 -0.011587564768486297
0.6502463215936712 3.166325992106958 -0.41158756476848635
1.1502463215936714 2.666325992106958 -0.41158756476848635
1.1502463215936714 2.666325992106958 -0.011587564768486297
1.1502463215936714 3.166325992106958 -0.011587564768486297
1.1502463215936714 3.166325992106958 -0.41158756476848635
1.339700206637665 0.5990365008126455 -0.32410848758719646
1.339700206637665 0.5990365008126455 0.07589151241280356
1.339700206637665 1.0990365008126455 0.07589151241280356
1.339700206637665 1.0990365008126455 -0.32410848758719646
1.839700206637665 0.5990365008126455 -0.32410848758719646
1.839700206637665 0.5990365008126455 0.07589151241280356
1.839700206637665 1.0990365008126455 0.07589151241280356
1.839700206637665 1.0990365008126455 -0.32410848758719646
1.1694064459599596 -1.309262949668294 -0.4865373170849026
1.1694064459599596 -1.309262949668294 -0.08653731708490259
1.1694064459599596 -0.8092629496682939 -0.08653731708490259
1.1694064459599596 -0.8092629496682939 -0.4865373170849026
1.6694064459599596 -1.309262949668294 -0.4865373170849026
1.6694064459599596 -1.309262949668294 -0.08653731708490259
1.6694064459599596 -0.8092629496682939 -0.08653731708490259
1.6694064459599596 -0.8092629496682939 -0.4865373170849026
1.4873551195130266 -1.855212583671833 -0.522310516330778
1.4873551195130266 -1.855212583671833 -0.122310516330778
1.4873551195130266 -1.355212583671833 -0.122310516330778
1.4873551195130266 -1.355212583671833 -0.522310516330778
1.9873551195130266 -1.855212583671833 -0.522310516330778
1.9873551195130266 -1.855212583671833 -0.122310516330778
1.9873551195130266 -1.355212583671833 -0.122310516330778
1.9873551195130266 -1.355212583671833 -0.522310516330778
1.0322597059999747 -0.5681665563976068 -0.36863207626051037
1.0322597059999747 -0.5681665563976068 0.031367923739489656
1.0322597059999747 -0.06816655639760683 0.031367923739489656
1.0322597059999747 -0.06816655639760683 -0.36863207626051037
1.5322597059999747 -0.5681665563976068 -0.36863207626051037
1.5322597059999747 -0.5681665563976068 0.031367923739489656
1.5322597059999747 -0.06816655639760683 0.031367923739489656
1.5322597059999747 -0.06816655639760683 -0.36863207626051037
2.206927410506162 2.7312460995341548 -0.33642867288348116
2.206927410506162 2.7312460995341548 0.06357132711651886
2.206927410506162 3.2312460995341548 0.06357132711651886
2.206927410506162 3.2312460995341548 -0.33642867288348116
2.706927410506162 2.7312460995341548 -0.33642867288348116
2.706927410506162 2.7312460995341548 0.06357132711651886
2.706927410506162 3.2312460995341548 0.06357132711651886
2.706927410506162 3.2312460995341548 -0.33642867288348116
1.0568015812198717 -1.5679275353993387 -0.4386466555739493
1.0568015812198717 -1.5679275353993387 -0.03864665557394925
1.0568015812198717 -1.0679275353993387 -0.03864665557394925
1.0568015812198717 -1.0679275353993387 -0.4386466555739493
1.5568015812198717 -1.5679275353993387 -0.4386466555739493
1.5568015812198717 -1.5679275353993387 -0.03864665557394925
1.5568015812198717 -1.0679275353993387 -0.03864665557394925
1.5568015812198717 -1.0679275353993387 -0.4386466555739493
0.2873648709525495 1.538694648493518 -0.4896857307111745
0.2873648709525495 1.538694648493518 -0.08968573071117447
0.2873648709525495 2.038694648493518 -0.08968573071117447
0.2873648709525495 2.038694648493518 -0.4896857307111745
0.7873648709525495 1.538694648493518 -0.4896857307111745
0.7873648709525495 1.538694648493518 -0.08968573071117447
0.7873648709525495 2.038694648493518 -0.08968573071117447
0.7873648709525495 2.038694648493518 -0.4896857307111745
2.719629614913575 -0.5125703287651957 -0.2269309843592448
2.719629614913575 -0.5125703287651957 0.17306901564075522
2.719629614913575 -0.012570328765195704 0.17306901564075522
2.719629614913575 -0.012570328765195704 -0.2269309843592448
3.219629614913575 -0.5125703287651957 -0.2269309843592448
3.219629614913575 -0.5125703287651957 0.17306901564075522
3.219629614913575 -0.012570328765195704 0.17306901564075522
3.219629614913575 -0.012570328765195704 -0.2269309843592448
1.0331483229737943 -1.9732325594559987 -0.46362396124834365
1.0331483229737943 -1.9732325594559987 -0.06362396124834363
1.0331483229737943 -1.4732325594559987 -0.06362396124834363
1.0331483229737943 -1.4732325594559987 -0.46362396124834365
1.5331483229737943 -1.9732325594559987 -0.46362396124834365
1.5331483229737943 -1.9732325594559987 -0.06362396124834363
1.5331483229737943 -1.4732325594559987 -0.06362396124834363
1.5331483229737943 -1.4732325594559987 -0.46362396124834365
0.6857195223888807 -0.6533022177279761 -0.31239257352627847
0.6857195223888807 -0.6533022177279761 0.08760742647372155
0.6857195223888807 -0.15330221772797614 0.08760742647372155
0.6857195223888807 -0.15330221772797614 -0.31239257352627847
1.1857195223888808 -0.6533022177279761 -0.31239257352627847
1.1857195223888808 -0.6533022177279761 0.08760742647372155
1.1857195223888808 -0.15330221772797614 0.08760742647372155
1.1857195223888808 -0.15330221772797614 -0.31239257352627847
-0.024224760171581927 -3.096564753957523 -0.3736087855384351
-0.024224760171581927 -3.096564753957523 0.02639121446156495
-0.024224760171581927 -2.596564753957523 0.02639121446156495
-0.024224760171581927 -2.596564753957523 -0.3736087855384351
0.4757752398284181 -3.096564753957523 -0.3736087855384351
0.4757752398284181 -3.096564753957523 0.02639121446156495
0.4757752398284181 -2.596564753957523 0.02639121446156495
0.4757752398284181 -2.596564753957523 -0.3736087855384351
2.577132143596372 0.5736839519853545 -0.2938001536630478
2.577132143596372 0.5736839519853545 0.10619984633695223
2.577132143596372 1.0736839519853545 0.10619984633695223
2.577132143596372 1.0736839519853545 -0.2938001536630478
3.077132143596372 0.5736839519853545 -0.2938001536630478
3.077132143596372 0.5736839519853545 0.10619984633695223
3.077132143596372 1.0736839519853545 0.10619984633695223
3.077132143596372 1.0736839519853545 -0.2938001536630478
0.8938122309021548 -3.020467178463848 -0.5416819288609502
0.8938122309021548 -3.020467178463848 -0.1416819288609502
0.8938122309021548 -2.520467178463848 -0.1416819288609502
0.8938122309021548 -2.520467178463848 -0.5416819288609502
1.3938122309021548 -3.020467178463848 -0.5416819288609502
1.3938122309021548 -3.020467178463848 -0.1416819288609502
1.3938122309021548 -2.520467178463848 -0.1416819288609502
1.3938122309021548 -2.520467178463848 -0.5416819288609502
1.7385335663697925 -1.88385970656585 -0.4135507490940561
1.7385335663697925 -1.88385970656585 -0.01355074909405607
1.7385335663697925 -1.38385970656585 -0.01355074909405607
1.7385335663697925 -1.38385970656585 -0.4135507490940561
2.2385335663697923 -1.88385970656585 -0.4135507490940561
2.2385335663697923 -1.88385970656585 -0.01355074909405607
2.2385335663697923 -1.38385970656585 -0.01355074909405607
2.2385335663697923 -1.38385970656585 -0.4135507490940561
0.5867996393909019 -1.0821333138675162 -0.5211808756407252
0.5867996393909019 -1.0821333138675162 -0.12118087564072522
0.5867996393909019 -0.5821333138675162 -0.12118087564072522
0.5867996393909019 -0.5821333138675162 -0.5211808756407252
1.0867996393909019 -1.0821333138675162 -0.5211808756407252
1.0867996393909019 -1.0821333138675162 -0.12118087564072522
1.0867996393909019 -0.5821333138675162 -0.12118087564072522
1.0867996393909019 -0.5821333138675162 -0.5211808756407252
2.4557611980586893 -3.153609731359152 -0.27893852780394096
2.4557611980586893 -3.153609731359152 0.12106147219605906
2.4557611980586893 -2.653609731359152 0.12106147219605906
2.4557611980586893 -2.653609731359152 -0.27893852780394096
2.9557611980586893 -3.153609731359152 -0.27893852780394096
2.9557611980586893 -3.153609731359152 0.12106147219605906
2.9557611980586893 -2.653609731359152 0.12106147219605906
2.9557611980586893 -2.653609731359152 -0.27893852780394096
2.303490203677983 2.024190832307454 -0.5744320169123571
2.303490203677983 2.024190832307454 -0.17443201691235705
2.303490203677983 2.524190832307454 -0.17443201691235705
2.303490203677983 2.524190832307454 -0.5744320169123571
2.803490203677983 2.024190832307454 -0.5744320169123571
2.803490203677983 2.024190832307454 -0.17443201691235705
2.803490203677983 2.524190832307454 -0.17443201691235705
2.803490203677983 2.524190832307454 -0.5744320169123571
0.19271437951450832 -0.046135311582300886 -0.20869243626733663
0.19271437951450832 -0.046135311582300886 0.1913075637326634
0.19271437951450832 0.4538646884176991 0.1913075637326634
0.19271437951450832 0.4538646884176991 -0.20869243626733663
0.6927143795145083 -0.046135311582300886 -0.20869243626733663
0.6927143795145083 -0.046135311582300886 0.1913075637326634
0.6927143795145083 0.4538646884176991 0.1913075637326634
0.6927143795145083 0.4538646884176991 -0.20869243626733663
2.582274868250038 -2.76130452995099 -0.2748487874303821
2.582274868250038 -2.76130452995099 0.12515121256961792
2.582274868250038 -2.26130452995099 0.12515121256961792
2.582274868250038 -2.26130452995099 -0.2748487874303821
3.082274868250038 -2.76130452995099 -0.2748487874303821
3.082274868250038 -2.76130452995099 0.12515121256961792
3.082274868250038 -2.26130452995099 0.12515121256961792
3.082274868250038 -2.26130452995099 -0.2748487874303821
1.1321449599773334 0.8406216035047827 -0.35427338624084026
1.1321449599773334 0.8406216035047827 0.04572661375915979
1.1321449599773334 1.3406216035047827 0.04572661375915979
1.1321449599773334 1.3406216035047827 -0.35427338624084026
1.6321449599773334 0.8406216035047827 -0.35427338624084026
1.6321449599773334 0.8406216035047827 0.04572661375915979
1.6321449599773334 1.3406216035047827 0.04572661375915979
1.6321449599773334 1.3406216035047827 -0.35427338624084026
-0.0862117737326602 2.677036960794222 -0.522304133433585
-0.0862117737326602 2.677036960794222 -0.12230413343358498
-0.0862117737326602 3.177036960794222 -0.12230413343358498
-0.0862117737326602 3.177036960794222 -0.522304133433585
0.4137882262673398 2.677036960794222 -0.522304133433585
0.4137882262673398 2.677036960794222 -0.12230413343358498
0.4137882262673398 3.177036960794222 -0.12230413343358498
0.4137882262673398 3.177036960794222 -0.522304133433585
0.4091849639529962 -1.5926993832136693 -0.4127316970338799
0.4091849639529962 -1.5926993832136693 -0.012731697033879857
0.4091849639529962 -1.0926993832136693 -0.012731697033879857
0.4091849639529962 -1.0926993832136693 -0.4127316970338799
0.9091849639529962 -1.5926993832136693 -0.4127316970338799
0.9091849639529962 -1.5926993832136693 -0.012731697033879857
0.9091849639529962 -1.0926993832136693 -0.012731697033879857
0.9091849639529962 -1.0926993832136693 -0.4127316970338799
2.31351150134131 1.3666933425019625 -0.4902036252822143
2.31351150134131 1.3666933425019625 -0.09020362528221426
2.31351150134131 1.8666933425019625 -0.09020362528221426
2.31351150134131 1.8666933425019625 -0.4902036252822143
2.81351150134131 1.3666933425019625 -0.4902036252822143
2.81351150134131 1.3666933425019625 -0.09020362528221426
2.81351150134131 1.8666933425019625 -0.09020362528221426
2.81351150134131 1.8666933425019625 -0.4902036252822143
1.4008089502647998 -2.217776217596539 -0.3300461162459942
1.4008089502647998 -2.217776217596539 0.0699538837540058
1.4008089502647998 -1.7177762175965392 0.0699538837540058
1.4008089502647998 -1.7177762175965392 -0.3300461162459942
1.9008089502647998 -2.217776217596539 -0.3300461162459942
1.9008089502647998 -2.217776217596539 0.0699538837540058
1.9008089502647998 -1.7177762175965392 0.0699538837540058
1.9008089502647998 -1.7177762175965392 -0.3300461162459942
1.5478902469207738 1.790513822477366 -0.29865315434283424
1.5478902469207738 1.790513822477366 0.10134684565716578
1.5478902469207738 2.290513822477366 0.10134684565716578
1.5478902469207738 2.290513822477366 -0.29865315434283424
2.047890246920774 1.790513822477366 -0.29865315434283424
2.047890246920774 1.790513822477366 0.10134684565716578
2.047890246920774 2.290513822477366 0.10134684565716578
2.047890246920774 2.290513822477366 -0.29865315434283424
1.7547169569033017 -0.845962925694761 -0.3389248376413799
1.7547169569033017 -0.845962925694761 0.06107516235862015
1.7547169569033017 -0.34596292569476095 0.06107516235862015
1.7547169569033017 -0.34596292569476095 -0.3389248376413799
2.2547169569033017 -0.845962925694761 -0.3389248376413799
2.2547169569033017 -0.845962925694761 0.06107516235862015
2.2547169569033017 -0.34596292569476095 0.06107516235862015
2.2547169569033017 -0.34596292569476095 -0.3389248376413799
0.7121690999484415 -0.5637141338547913 -0.36003661685717253
0.7121690999484415 -0.5637141338547913 0.03996338314282749
0.7121690999484415 -0.0637141338547913 0.03996338314282749
0.7121690999484415 -0.0637141338547913 -0.36003661685717253
1.2121690999484414 -0.5637141338547913 -0.36003661685717253
1.2121690999484414 -0.5637141338547913 0.03996338314282749
1.2121690999484414 -0.0637141338547913 0.03996338314282749
1.2121690999484414 -0.0637141338547913 -0.36003661685717253
1.6375200756809716 -0.35353800358969245 -0.41746922702604167
1.6375200756809716 -0.35353800358969245 -0.017469227026041645
1.6375200756809716 0.14646199641030755 -0.017469227026041645
1.6375200756809716 0.14646199641030755 -0.41746922702604167
2.1375200756809716 -0.35353800358969245 -0.41746922702604167
2.1375200756809716 -0.35353800358969245 -0.017469227026041645
2.1375200756809716 0.14646199641030755 -0.017469227026041645
2.1375200756809716 0.14646199641030755 -0.41746922702604167
1.0699411034447097 0.800075617373408 -0.5758453990111609
1.0699411034447097 0.800075617373408 -0.17584539901116097
1.0699411034447097 1.300075617373408 -0.17584539901116097
1.0699411034447097 1.300075617373408 -0.5758453990111609
1.5699411034447097 0.800075617373408 -0.5758453990111609
1.5699411034447097 0.800075617373408 -0.17584539901116097
1.5699411034447097 1.300075617373408 -0.17584539901116097
1.5699411034447097 1.300075617373408 -0.5758453990111609
1.1679472953053676 -3.230823822720322 -0.4097399013236851
1.1679472953053676 -3.230823822720322 -0.009739901323685046
1.1679472953053676 -2.730823822720322 -0.009739901323685046
1.1679472953053676 -2.730823822720322 -0.4097399013236851
1.6679472953053676 -3.230823822720322 -0.4097399013236851
1.6679472953053676 -3.230823822720322 -0.009739901323685046
1.6679472953053676 -2.730823822720322 -0.009739901323685046
1.6679472953053676 -2.730823822720322 -0.4097399013236851
1.103628055533645 0.8788988487892571 -0.3905883905891555
1.103628055533645 0.8788988487892571 0.009411609410844513
1.103628055533645 1.378898848789257 0.009411609410844513
1.103628055533645 1.378898848789257 -0.3905883905891555
1.603628055533645 0.8788988487892571 -0.3905883905891555
1.603628055533645 0.8788988487892571 0.009411609410844513
1.603628055533645 1.378898848789257 0.009411609410844513
1.603628055533645 1.378898848789257 -0.3905883905891555
0.952543101737223 1.873547827911195 -0.5323655821325339
0.952543101737223 1.873547827911195 -0.13236558213253397
0.952543101737223 2.373547827911195 -0.13236558213253397
0.952543101737223 2.373547827911195 -0.5323655821325339
1.452543101737223 1.873547827911195 -0.5323655821325339
1.452543101737223 1.873547827911195 -0.13236558213253397
1.452543101737223 2.373547827911195 -0.13236558213253397
1.452543101737223 2.373547827911195 -0.5323655821325339
0.016252188889846697 -2.532381636753726 -0.3680396238105397
0.016252188889846697 -2.532381636753726 0.03196037618946032
0.016252188889846697 -2.032381636753726 0.03196037618946032
0.016252188889846697 -2.032381636753726 -0.3680396238105397
0.5162521888898467 -2.532381636753726 -0.3680396238105397
0.5162521888898467 -2.532381636753726 0.03196037618946032
0.5162521888898467 -2.032381636753726 0.03196037618946032
0.5162521888898467 -2.032381636753726 -0.3680396238105397
-0.22909936947221965 2.4220188407312326 -0.26810969239838256
-0.22909936947221965 2.4220188407312326 0.13189030760161746
-0.22909936947221965 2.9220188407312326 0.13189030760161746
-0.22909936947221965 2.9220188407312326 -0.26810969239838256
0.27090063052778035 2.4220188407312326 -0.26810969239838256
0.27090063052778035 2.4220188407312326 0.13189030760161746
0.27090063052778035 2.9220188407312326 0.13189030760161746
0.27090063052778035 2.9220188407312326 -0.26810969239838256
1.671916573687675 1.762971972855393 -0.50050604880631
1.671916573687675 1.762971972855393 -0.10050604880630998
1.671916573687675 2.262971972855393 -0.10050604880630998
1.671916573687675 2.262971972855393 -0.50050604880631
2.171916573687675 1.762971972855393 -0.50050604880631
2.171916573687675 1.762971972855393 -0.10050604880630998
2.171916573687675 2.262971972855393 -0.10050604880630998
2.171916573687675 2.262971972855393 -0.50050604880631
-0.06736764852720578 -1.4073740605852643 -0.4885971397823091
-0.06736764852720578 -1.4073740605852643 -0.0885971397823091
-0.06736764852720578 -0.9073740605852643 -0.0885971397823091
-0.06736764852720578 -0.9073740605852643 -0.4885971397823091
0.4326323514727942 -1.4073740605852643 -0.4885971397823091
0.4326323514727942 -1.4073740605852643 -0.0885971397823091
0.4326323514727942 -0.9073740605852643 -0.0885971397823091
0.4326323514727942 -0.9073740605852643 -0.4885971397823091
0.6980950236085286 -1.1651232486813194 -0.31341667254685057
0.6980950236085286 -1.1651232486813194 0.08658332745314945
0.6980950236085286 -0.6651232486813194 0.08658332745314945
0.6980950236085286 -0.6651232486813194 -0.31341667254685057
1.1980950236085286 -1.1651232486813194 -0.31341667254685057
1.1980950236085286 -1.1651232486813194 0.08658332745314945
1.1980950236085286 -0.6651232486813194 0.08658332745314945
1.1980950236085286 -0.6651232486813194 -0.31341667254685057
0.3680314770687534 -1.9089560658393436 -0.4236913668831987
0.3680314770687534 -1.9089560658393436 -0.023691366883198672
0.3680314770687534 -1.4089560658393436 -0.023691366883198672
0.3680314770687534 -1.4089560658393436 -0.4236913668831987
0.8680314770687534 -1.9089560658393436 -0.4236913668831987
0.8680314770687534 -1.9089560658393436 -0.023691366883198672
0.8680314770687534 -1.4089560658393436 -0.023691366883198672
0.8680314770687534 -1.4089560658393436 -0.4236913668831987
0.052014601441003006 2.266186681668093 -0.2466104798914553
0.052014601441003006 2.266186681668093 0.15338952010854473
0.052014601441003006 2.766186681668093 0.15338952010854473
0.052014601441003006 2.766186681668093 -0.2466104798914553
0.552014601441003 2.266186681668093 -0.2466104798914553
0.552014601441003 2.266186681668093 0.15338952010854473
0.552014601441003 2.766186681668093 0.15338952010854473
0.552014601441003 2.766186681668093 -0.2466104798914553
1.35701772010862 0.3355711443334566 -0.5672378110044298
1.35701772010862 0.3355711443334566 -0.1672378110044298
1.35701772010862 0.8355711443334566 -0.1672378110044298
1.35701772010862 0.8355711443334566 -0.5672378110044298
1.85701772010862 0.3355711443334566 -0.5672378110044298
1.85701772010862 0.3355711443334566 -0.1672378110044298
1.85701772010862 0.8355711443334566 -0.1672378110044298
1.85701772010862 0.8355711443334566 -0.5672378110044298
0.07130031173309992 -1.6289499524508664 -0.5349746804624198
0.07130031173309992 -1.6289499524508664 -0.13497468046241978
0.07130031173309992 -1.1289499524508664 -0.13497468046241978
0.07130031173309992 -1.1289499524508664 -0.5349746804624198
0.5713003117330999 -1.6289499524508664 -0.5349746804624198
0.5713003117330999 -1.6289499524508664 -0.13497468046241978
0.5713003117330999 -1.1289499524508664 -0.13497468046241978
0.5713003117330999 -1.1289499524508664 -0.5349746804624198
1.4093884785364212 -2.8179720631138494 -0.30493471403426764
1.4093884785364212 -2.8179720631138494 0.09506528596573238
1.4093884785364212 -2.3179720631138494 0.09506528596573238
1.4093884785364212 -2.3179720631138494 -0.30493471403426764
1.9093884785364212 -2.8179720631138494 -0.30493471403426764
1.9093884785364212 -2.8179720631138494 0.09506528596573238
1.9093884785364212 -2.3179720631138494 0.09506528596573238
1.9093884785364212 -2.3179720631138494 -0.30493471403426764
2.589212184218786 -2.043312963645063 -0.31630503303214974
2.589212184218786 -2.043312963645063 0.08369496696785028
2.589212184218786 -1.543312963645063 0.08369496696785028
2.589212184218786 -1.543312963645063 -0.31630503303214974
3.089212184218786 -2.043312963645063 -0.31630503303214974
3.089212184218786 -2.043312963645063 0.08369496696785028
3.089212184218786 -1.543312963645063 0.08369496696785028
3.089212184218786 -1.543312963645063 -0.31630503303214974
0.7370010302823606 2.5619935122355315 -0.31426826773591054
0.7370010302823606 2.5619935122355315 0.08573173226408948
0.7370010302823606 3.0619935122355315 0.08573173226408948
0.7370010302823606 3.0619935122355315 -0.31426826773591054
1.2370010302823606 2.5619935122355315 -0.31426826773591054
1.2370010302823606 2.5619935122355315 0.08573173226408948
1.2370010302823606 3.0619935122355315 0.08573173226408948
1.2370010302823606 3.0619935122355315 -0.31426826773591054
0.2280696506105857 1.8972148731353595 -0.22512693514607007
0.2280696506105857 1.8972148731353595 0.17487306485392995
0.2280696506105857 2.3972148731353595 0.17487306485392995
0.2280696506105857 2.3972148731353595 -0.22512693514607007
0.7280696506105857 1.8972148731353595 -0.22512693514607007
0.7280696506105857 1.8972148731353595 0.17487306485392995
0.7280696506105857 2.3972148731353595 0.17487306485392995
0.7280696506105857 2.3972148731353595 -0.22512693514607007
2.721111207063337 -2.119513139966275 -0.3964579152059609
2.721111207063337 -2.119513139966275 0.003542084794039113
2.721111207063337 -1.619513139966275 0.003542084794039113
2.721111207063337 -1.619513139966275 -0.3964579152059609
3.221111207063337 -2.119513139966275 -0.3964579152059609
3.221111207063337 -2.119513139966275 0.003542084794039113
3.221111207063337 -1.619513139966275 0.003542084794039113
3.221111207063337 -1.619513139966275 -0.3964579152059609
1.5728301770406967 2.516539229496588 -0.20979583908155686
1.5728301770406967 2.516539229496588 0.19020416091844317
1.5728301770406967 3.016539229496588 0.19020416091844317
1.5728301770406967 3.016539229496588 -0.20979583908155686
2.0728301770406965 2.516539229496588 -0.20979583908155686
2.0728301770406965 2.516539229496588 0.19020416091844317
2.0728301770406965 3.016539229496588 0.19020416091844317
2.0728301770406965 3.016539229496588 -0.20979583908155686
0.23791472220680887 2.1455895899618582 -0.21526154971264905
0.23791472220680887 2.1455895899618582 0.18473845028735097
0.23791472220680887 2.6455895899618582 0.18473845028735097
0.23791472220680887 2.6455895899618582 -0.21526154971264905
0.7379147222068089 2.1455895899618582 -0.21526154971264905
0.7379147222068089 2.1455895899618582 0.18473845028735097
0.7379147222068089 2.6455895899618582 0.18473845028735097
0.7379147222068089 2.6455895899618582 -0.21526154971264905
1.1970818537663184 -1.1568067635759869 -0.38735757385251435
1.1970818537663184 -1.1568067635759869 0.012642426147485702
1.1970818537663184 -0.6568067635759869 0.012642426147485702
1.1970818537663184 -0.6568067635759869 -0.38735757385251435
1.6970818537663184 -1.1568067635759869 -0.38735757385251435
1.6970818537663184 -1.1568067635759869 0.012642426147485702
1.6970818537663184 -0.6568067635759869 0.012642426147485702
1.6970818537663184 -0.6568067635759869 -0.38735757385251435
2.4680334621427593 -2.601554641367816 -0.5892426792006962
2.4680334621427593 -2.601554641367816 -0.1892426792006962
2.4680334621427593 -2.101554641367816 -0.1892426792006962
2.4680334621427593 -2.101554641367816 -0.5892426792006962
2.9680334621427593 -2.601554641367816 -0.5892426792006962
2.9680334621427593 -2.601554641367816 -0.1892426792006962
2.9680334621427593 -2.101554641367816 -0.1892426792006962
2.9680334621427593 -2.101554641367816 -0.5892426792006962
0.0842885084035484 -1.4783745725015005 -0.5155447534856668
0.0842885084035484 -1.4783745725015005 -0.11554475348566678
0.0842885084035484 -0.9783745725015005 -0.11554475348566678
0.0842885084035484 -0.9783745725015005 -0.5155447534856668
0.5842885084035484 -1.4783745725015005 -0.5155447534856668
0.5842885084035484 -1.4783745725015005 -0.11554475348566678
0.5842885084035484 -0.9783745725015005 -0.11554475348566678
0.5842885084035484 -0.9783745725015005 -0.5155447534856668
-0.20952005847793775 2.0239012766190143 -0.22888856711221744
-0.20952005847793775 2.0239012766190143 0.17111143288778258
-0.20952005847793775 2.5239012766190143 0.17111143288778258
-0.20952005847793775 2.5239012766190143 -0.22888856711221744
0.29047994152206225 2.0239012766190143 -0.22888856711221744
0.29047994152206225 2.0239012766190143 0.17111143288778258
0.29047994152206225 2.5239012766190143 0.17111143288778258
0.29047994152206225 2.5239012766190143 -0.22888856711221744
-0.1191940382658151 -1.204155229220567 -0.5641070516659262
-0.1191940382658151 -1.204155229220567 -0.1641070516659262
-0.1191940382658151 -0.7041552292205671 -0.1641070516659262
-0.1191940382658151 -0.7041552292205671 -0.5641070516659262
0.3808059617341849 -1.204155229220567 -0.5641070516659262
0.3808059617341849 -1.204155229220567 -0.1641070516659262
0.3808059617341849 -0.7041552292205671 -0.1641070516659262
0.3808059617341849 -0.7041552292205671 -0.5641070516659262
-3.5 -3.5 -0.2
-3.5 -3.5 0.0
-3.5 3.5 0.0
-3.5 3.5 -0.2
3.5 -3.5 -0.2
3.5 -3.5 0.0
3.5 3.5 0.0
3.5 3.5 -0.2
3 0 1 2 
3 0 2 3 
3 7 6 5 
3 7 5 4 
3 0 4 5 
3 0 5 1 
3 1 5 6 
3 1 6 2 
3 2 6 7 
3 2 7 3 
3 3 7 4 
3 3 4 0 
3 8 9 10 
3 8 10 11 
3 15 14 13 
3 15 13 12 
3 8 12 13 
3 8 13 9 
3 9 13 14 
3 9 14 10 
3 10 14 15 
3 10 15 11 
3 11 15 12 
3 11 12 8 
3 16 17 18 
3 16 18 19 
3 23 22 21 
3 23 21 20 
3 16 20 21 
3 16 21 17 
3 17 21 22 
3 17 22 18 
3 18 22 23 
3 18 23 19 
3 19 23 20 
3 19 20 16 
3 24 25 26 
3 24 26 27 
3 31 30 29 
3 31 29 28 
3 24 28 29 
3 24 29 25 
3 25 29 30 
3 25 30 26 
3 26 30 31 
3 26 31 27 
3 27 31 28 
3 27 28 24 
3 32 33 34 
3 32 34 35 
3 39 38 37 
3 39 37 36 
3 32 36 37 
3 32 37 33 
3 33 37 38 
3 33 38 34 
3 34 38 39 
3 34 39 35 
3 35 39 36 
3 35 36 32 
3 40 41 42 
3 40 42 43 
3 47 46 45 
3 47 45 44 
3 40 44 45 
3 40 45 41 
3 41 45 46 
3 41 46 42 
3 42 46 47 
3 42 47 43 
3 43 47 44 
3 43 44 40 
3 48 49 50 
3 48 50 51 
3 55 54 53 
3 55 53 52 
3 48 52 53 
3 48 53 49 
3 49 53 54 
3 49 54 50 
3 50 54 55 
3 50 55 51 
3 51 55 52 
3 51 52 48 
3 56 57 58 
3 56 58 59 
3 63 62 61 
3 63 61 60 
3 56 60 61 
3 56 61 57 
3 57 61 62 
3 57 62 58 
3 58 62 63 
3 58 63 59 
3 59 63 60 
3 59 60 56 
3 64 65 66 
3 64 66 67 
3 71 70 69 
3 71 69 68 
3 64 68 69 
3 64 69 65 
3 65 69 70 
3 65 70 66 
3 66 70 71 
3 66 71 67 
3 67 71 68 
3 67 68 64 
3 72 73 74 
3 72 74 75 
3 79 78 77 
3 79 77 76 
3 72 76 77 
3 72 77 73 
3 73 77 78 
3 73 78 74 
3 74 78 79 
3 74 79 75 
3 75 79 76 
3 75 76 72 
3 80 81 82 
3 80 82 83 
3 87 86 85 
3 87 85 84 
3 80 84 85 
3 80 85 81 
3 81 85 86 
3 81 86 82 
3 82 86 87 
3 82 87 83 
3 83 87 84 
3 83 84 80 
3 88 89 90 
3 88 90 91 
3 95 94 93 
3 95 93 92 
3 88 92 93 
3 88 93 89 
3 89 93 94 
3 89 94 90 
3 90 94 95 
3 90 95 91 
3 91 95 92 
3 91 92 88 
3 96 97 98 
3 96 98 99 
3 103 102 101 
3 103 101 100 
3 96 100 101 
3 96 101 97 
3 97 101 102 
3 97 102 98 
3 98 102 103 
3 98 103 99 
3 99 103 100 
3 99 100 96 
3 104 105 106 
3 104 106 107 
3 111 110 109 
3 111 109 108 
3 104 108 109 
3 104 109 105 
3 105 109 110 
3 105 110 106 
3 106 110 111 
3 106 111 107 
3 107 111 108 
3 107 108 104 
3 112 113 114 
3 112 114 115 
3 119 118 117 
3 119 117 116 
3 112 116 117 
3 112 117 113 
3 113 117 118 
3 113 118 114 
3 114 118 119 
3 114 119 115 
3 115 119 116 
3 115 116 112 
3 120 121 122 
3 120 122 123 
3 127 126 125 
3 127 125 124 
3 120 124 125 
3 120 125 121 
3 121 125 126 
3 121 126 122 
3 122 126 127 
3 122 127 123 
3 123 127 124 
3 123 124 120 
3 128 129 130 
3 128 130 131 
3 135 134 133 
3 135 133 132 
3 128 132 133 
3 128 133 129 
3 129 133 134 
3 129 134 130 
3 130 134 135 
3 130 135 131 
3 131 135 132 
3 131 132 128 
3 136 137 138 
3 136 138 139 
3 143 142 141 
3 143 141 140 
3 136 140 141 
3 136 141 137 
3 137 141 142 
3 137 142 138 
3 138 142 143 
3 138 143 139 
3 139 143 140 
3 139 140 136 
3 144 145 146 
3 144 146 147 
3 151 150 149 
3 151 149 148 
3 144 148 149 
3 144 149 145 
3 145 149 150 
3 145 150 146 
3 146 150 151 
3 146 151 147 
3 147 151 148 
3 147 148 144 
3 152 153 154 
3 152 154 155 
3 159 158 157 
3 159 157 156 
3 152 156 157 
3 152 157 153 
3 153 157 158 
3 153 158 154 
3 154 158 159 
3 154 159 155 
3 155 159 156 
3 155 156 152 
3 160 161 162 
3 160 162 163 
3 167 166 165 
3 167 165 164 
3 160 164 165 
3 160 165 161 
3 161 165 166 
3 161 166 162 
3 162 166 167 
3 162 167 163 
3 163 167 164 
3 163 164 160 
3 168 169 170 
3 168 170 171 
3 175 174 173 
3 175 173 172 
3 168 172 173 
3 168 173 169 
3 169 173 174 
3 169 174 170 
3 170 174 175 
3 170 175 171 
3 171 175 172 
3 171 172 168 
3 176 177 178 
3 176 178 179 
3 183 182 181 
3 183 181 180 
3 176 180 181 
3 176 181 177 
3 177 181 182 
3 177 182 178 
3 178 182 183 
3 178 183 179 
3 179 183 180 
3 179 180 176 
3 184 185 186 
3 184 186 187 
3 191 190 189 
3 191 189 188 
3 184 188 189 
3 184 189 185 
3 185 189 190 
3 185 190 186 
3 186 190 191 
3 186 191 187 
3 187 191 188 
3 187 188 184 
3 192 193 194 
3 192 194 195 
3 199 198 197 
3 199 197 196 
3 192 196 197 
3 192 197 193 
3 193 197 198 
3 193 198 194 
3 194 198 199 
3 194 199 195 
3 195 199 196 
3 195 196 192 
3 200 201 202 
3 200 202 203 
3 207 206 205 
3 207 205 204 
3 200 204 205 
3 200 205 201 
3 201 205 206 
3 201 206 202 
3 202 206 207 
3 202 207 203 
3 203 207 204 
3 203 204 200 
3 208 209 210 
3 208 210 211 
3 215 214 213 
3 215 213 212 
3 208 212 213 
3 208 213 209 
3 209 213 214 
3 209 214 210 
3 210 214 215 
3 210 215 211 
3 211 215 212 
3 211 212 208 
3 216 217 218 
3 216 218 219 
3 223 222 221 
3 223 221 220 
3 216 220 221 
3 216 221 217 
3 217 221 222 
3 217 222 218 
3 218 222 223 
3 218 223 219 
3 219 223 220 
3 219 220 216 
3 224 225 226 
3 224 226 227 
3 231 230 229 
3 231 229 228 
3 224 228 229 
3 224 229 225 
3 225 229 230 
3 225 230 226 
3 226 230 231 
3 226 231 227 
3 227 231 228 
3 227 228 224 
3 232 233 234 
3 232 234 235 
3 239 238 237 
3 239 237 236 
3 232 236 237 
3 232 237 233 
3 233 237 238 
3 233 238 234 
3 234 238 239 
3 234 239 235 
3 235 239 236 
3 235 236 232 
3 240 241 242 
3 240 242 243 
3 247 246 245 
3 247 245 244 
3 240 244 245 
3 240 245 241 
3 241 245 246 
3 241 246 242 
3 242 246 247 
3 242 247 243 
3 243 247 244 
3 243 244 240 
3 248 249 250 
3 248 250 251 
3 255 254 253 
3 255 253 252 
3 248 252 253 
3 248 253 249 
3 249 253 254 
3 249 254 250 
3 250 254 255 
3 250 255 251 
3 251 255 252 
3 251 252 248 
3 256 257 258 
3 256 258 259 
3 263 262 261 
3 263 261 260 
3 256 260 261 
3 256 261 257 
3 257 261 262 
3 257 262 258 
3 258 262 263 
3 258 263 259 
3 259 263 260 
3 259 260 256 
3 264 265 266 
3 264 266 267 
3 271 270 269 
3 271 269 268 
3 264 268 269 
3 264 269 265 
3 265 269 270 
3 265 270 266 
3 266 270 271 
3 266 271 267 
3 267 271 268 
3 267 268 264 
3 272 273 274 
3 272 274 275 
3 279 278 277 
3 279 277 276 
3 272 276 277 
3 272 277 273 
3 273 277 278 
3 273 278 274 
3 274 278 279 
3 274 279 275 
3 275 279 276 
3 275 276 272 
3 280 281 282 
3 280 282 283 
3 287 286 285 
3 287 285 284 
3 280 284 285 
3 280 285 281 
3 281 285 286 
3 281 286 282 
3 282 286 287 
3 282 287 283 
3 283 287 284 
3 283 284 280 
3 288 289 290 
3 288 290 291 
3 295 294 293 
3 295 293 292 
3 288 292 293 
3 288 293 289 
3 289 293 294 
3 289 294 290 
3 290 294 295 
3 290 295 291 
3 291 295 292 
3 291 292 288 
3 296 297 298 
3 296 298 299 
3 303 302 301 
3 303 301 300 
3 296 300 301 
3 296 301 297 
3 297 301 302 
3 297 302 298 
3 298 302 303 
3 298 303 299 
3 299 303 300 
3 299 300 296 
3 304 305 306 
3 304 306 307 
3 311 310 309 
3 311 309 308 
3 304 308 309 
3 304 309 305 
3 305 309 310 
3 305 310 306 
3 306 310 311 
3 306 311 307 
3 307 311 308 
3 307 308 304 
3 312 313 314 
3 312 314 315 
3 319 318 317 
3 319 317 316 
3 312 316 317 
3 312 317 313 
3 313 317 318 
3 313 318 314 
3 314 318 319 
3 314 319 315 
3 315 319 316 
3 315 316 312 
3 320 321 322 
3 320 322 323 
3 327 326 325 
3 327 325 324 
3 320 324 325 
3 320 325 321 
3 321 325 326 
3 321 326 322 
3 322 326 327 
3 322 327 323 
3 323 327 324 
3 323 324 320 
3 328 329 330 
3 328 330 331 
3 335 334 333 
3 335 333 332 
3 328 332 333 
3 328 333 329 
3 329 333 334 
3 329 334 330 
3 330 334 335 
3 330 335 331 
3 331 335 332 
3 331 332 328 
3 336 337 338 
3 336 338 339 
3 343 342 341 
3 343 341 340 
3 336 340 341 
3 336 341 337 
3 337 341 342 
3 337 342 338 
3 338 342 343 
3 338 343 339 
3 339 343 340 
3 339 340 336 
3 344 345 346 
3 344 346 347 
3 351 350 349 
3 351 349 348 
3 344 348 349 
3 344 349 345 
3 345 349 350 
3 345 350 346 
3 346 350 351 
3 346 351 347 
3 347 351 348 
3 347 348 344 
3 352 353 354 
3 352 354 355 
3 359 358 357 
3 359 357 356 
3 352 356 357 
3 352 357 353 
3 353 357 358 
3 353 358 354 
3 354 358 359 
3 354 359 355 
3 355 359 356 
3 355 356 352 
3 360 361 362 
3 360 362 363 
3 367 366 365 
3 367 365 364 
3 360 364 365 
3 360 365 361 
3 361 365 366 
3 361 366 362 
3 362 366 367 
3 362 367 363 
3 363 367 364 
3 363 364 360 
3 368 369 370 
3 368 370 371 
3 375 374 373 
3 375 373 372 
3 368 372 373 
3 368 373 369 
3 369 373 374 
3 369 374 370 
3 370 374 375 
3 370 375 371 
3 371 375 372 
3 371 372 368 
3 376 377 378 
3 376 378 379 
3 383 382 381 
3 383 381 380 
3 376 380 381 
3 376 381 377 
3 377 381 382 
3 377 382 378 
3 378 382 383 
3 378 383 379 
3 379 383 380 
3 379 380 376 
3 384 385 386 
3 384 386 387 
3 391 390 389 
3 391 389 388 
3 384 388 389 
3 384 389 385 
3 385 389 390 
3 385 390 386 
3 386 390 391 
3 386 391 387 
3 387 391 388 
3 387 388 384 
3 392 393 394 
3 392 394 395 
3 399 398 397 
3 399 397 396 
3 392 396 397 
3 392 397 393 
3 393 397 398 
3 393 398 394 
3 394 398 399 
3 394 399 395 
3 395 399 396 
3 395 396 392 
3 400 401 402 
3 400 402 403 
3 407 406 405 
3 407 405 404 
3 400 404 405 
3 400 405 401 
3 401 405 406 
3 401 406 402 
3 402 406 407 
3 402 407 403 
3 403 407 404 
3 403 404 400 
3 408 409 410 
3 408 410 411 
3 415 414 413 
3 415 413 412 
3 408 412 413 
3 408 413 409 
3 409 413 414 
3 409 414 410 
3 410 414 415 
3 410 415 411 
3 411 415 412 
3 411 412 408 
3 416 417 418 
3 416 418 419 
3 423 422 421 
3 423 421 420 
3 416 420 421 
3 416 421 417 
3 417 421 422 
3 417 422 418 
3 418 422 423 
3 418 423 419 
3 419 423 420 
3 419 420 416 
3 424 425 426 
3 424 426 427 
3 431 430 429 
3 431 429 428 
3 424 428 429 
3 424 429 425 
3 425 429 430 
3 425 430 426 
3 426 430 431 
3 426 431 427 
3 427 431 428 
3 427 428 424 
3 432 433 434 
3 432 434 435 
3 439 438 437 
3 439 437 436 
3 432 436 437 
3 432 437 433 
3 433 437 438 
3 433 438 434 
3 434 438 439 
3 434 439 435 
3 435 439 436 
3 435 436 432 
3 440 441 442 
3 440 442 443 
3 447 446 445 
3 447 445 444 
3 440 444 445 
3 440 445 441 
3 441 445 446 
3 441 446 442 
3 442 446 447 
3 442 447 443 
3 443 447 444 
3 443 444 440 
3 448 449 450 
3 448 450 451 
3 455 454 453 
3 455 453 452 
3 448 452 453 
3 448 453 449 
3 449 453 454 
3 449 454 450 
3 450 454 455 
3 450 455 451 
3 451 455 452 
3 451 452 448 
3 456 457 458 
3 456 458 459 
3 463 462 461 
3 463 461 460 
3 456 460 461 
3 456 461 457 
3 457 461 462 
3 457 462 458 
3 458 462 463 
3 458 463 459 
3 459 463 460 
3 459 460 456 
3 464 465 466 
3 464 466 467 
3 471 470 469 
3 471 469 468 
3 464 468 469 
3 464 469 465 
3 465 469 470 
3 465 470 466 
3 466 470 471 
3 466 471 467 
3 467 471 468 
3 467 468 464 
3 472 473 474 
3 472 474 475 
3 479 478 477 
3 479 477 476 
3 472 476 477 
3 472 477 473 
3 473 477 478 
3 473 478 474 
3 474 478 479 
3 474 479 475 
3 475 479 476 
3 475 476 472 
3 480 481 482 
3 480 482 483 
3 487 486 485 
3 487 485 484 
3 480 484 485 
3 480 485 481 
3 481 485 486 
3 481 486 482 
3 482 486 487 
3 482 487 483 
3 483 487 484 
3 483 484 480 
