ply
format ascii 1.0
element vertex 128
property float x      
property float y           
property float z 
element face 192  
property list uchar int vertex_index
end_header
-12.5 -12.5 -0.2
-12.5 -12.5 0.0
-12.5 12.5 0.0
-12.5 12.5 -0.2
12.5 -12.5 -0.2
12.5 -12.5 0.0
12.5 12.5 0.0
12.5 12.5 -0.2
-0.17 -2.85 0.0
-0.17 -2.85 0.145
-0.17 2.85 0.145
-0.17 2.85 0.0
0.17 -2.85 0.0
0.17 -2.85 0.145
0.17 2.85 0.145
0.17 2.85 0.0
0.17 -2.85 0.14499999999999996
0.17 -2.85 0.29
0.17 2.85 0.29
0.17 2.85 0.14499999999999996
0.51 -2.85 0.14499999999999996
0.51 -2.85 0.29
0.51 2.85 0.29
0.51 2.85 0.14499999999999996
0.51 -2.85 0.29
0.51 -2.85 0.435
0.51 2.85 0.435
0.51 2.85 0.29
0.8500000000000001 -2.85 0.29
0.8500000000000001 -2.85 0.435
0.8500000000000001 2.85 0.435
0.8500000000000001 2.85 0.29
0.85 -2.85 0.43499999999999994
0.85 -2.85 0.58
0.85 2.85 0.58
0.85 2.85 0.43499999999999994
1.19 -2.85 0.43499999999999994
1.19 -2.85 0.58
1.19 2.85 0.58
1.19 2.85 0.43499999999999994
1.1900000000000002 -2.85 0.58
1.1900000000000002 -2.85 0.725
1.1900000000000002 2.85 0.725
1.1900000000000002 2.85 0.58
1.53 -2.85 0.58
1.53 -2.85 0.725
1.53 2.85 0.725
1.53 2.85 0.58
1.5300000000000002 -2.85 0.725
1.5300000000000002 -2.85 0.87
1.5300000000000002 2.85 0.87
1.5300000000000002 2.85 0.725
1.87 -2.85 0.725
1.87 -2.85 0.87
1.87 2.85 0.87
1.87 2.85 0.725
1.87 -2.85 0.8699999999999999
1.87 -2.85 1.015
1.87 2.85 1.015
1.87 2.85 0.8699999999999999
2.21 -2.85 0.8699999999999999
2.21 -2.85 1.015
2.21 2.85 1.015
2.21 2.85 0.8699999999999999
2.2100000000000004 -2.85 1.015
2.2100000000000004 -2.85 1.16
2.2100000000000004 2.85 1.16
2.2100000000000004 2.85 1.015
2.5500000000000003 -2.85 1.015
2.5500000000000003 -2.85 1.16
2.5500000000000003 2.85 1.16
2.5500000000000003 2.85 1.015
2.5500000000000003 -2.85 1.16
2.5500000000000003 -2.85 1.305
2.5500000000000003 2.85 1.305
2.5500000000000003 2.85 1.16
2.89 -2.85 1.16
2.89 -2.85 1.305
2.89 2.85 1.305
2.89 2.85 1.16
2.89 -2.85 1.305
2.89 -2.85 1.45
2.89 2.85 1.45
2.89 2.85 1.305
3.23 -2.85 1.305
3.23 -2.85 1.45
3.23 2.85 1.45
3.23 2.85 1.305
3.2300000000000004 -2.85 1.45
3.2300000000000004 -2.85 1.595
3.2300000000000004 2.85 1.595
3.2300000000000004 2.85 1.45
3.5700000000000003 -2.85 1.45
3.5700000000000003 -2.85 1.595
3.5700000000000003 2.85 1.595
3.5700000000000003 2.85 1.45
3.5700000000000003 -2.85 1.595
3.5700000000000003 -2.85 1.74
3.5700000000000003 2.85 1.74
3.5700000000000003 2.85 1.595
3.91 -2.85 1.595
3.91 -2.85 1.74
3.91 2.85 1.74
3.91 2.85 1.595
3.91 -2.85 1.7399999999999998
3.91 -2.85 1.8849999999999998
3.91 2.85 1.8849999999999998
3.91 2.85 1.7399999999999998
4.25 -2.85 1.7399999999999998
4.25 -2.85 1.8849999999999998
4.25 2.85 1.8849999999999998
4.25 2.85 1.7399999999999998
4.25 -2.85 1.8849999999999998
4.25 -2.85 2.03
4.25 2.85 2.03
4.25 2.85 1.8849999999999998
4.59 -2.85 1.8849999999999998
4.59 -2.85 2.03
4.59 2.85 2.03
4.59 2.85 1.8849999999999998
4.590000000000002 -2.85 2.03
4.590000000000002 -2.85 2.1749999999999994
4.590000000000002 2.85 2.1749999999999994
4.590000000000002 2.85 2.03
14.930000000000001 -2.85 2.03
14.930000000000001 -2.85 2.1749999999999994
14.930000000000001 2.85 2.1749999999999994
14.930000000000001 2.85 2.03
3 0 1 2 
3 0 2 3 
3 7 6 5 
3 7 5 4 
3 0 4 5 
3 0 5 1 
3 1 5 6 
3 1 6 2 
3 2 6 7 
3 2 7 3 
3 3 7 4 
3 3 4 0 
3 8 9 10 
3 8 10 11 
3 15 14 13 
3 15 13 12 
3 8 12 13 
3 8 13 9 
3 9 13 14 
3 9 14 10 
3 10 14 15 
3 10 15 11 
3 11 15 12 
3 11 12 8 
3 16 17 18 
3 16 18 19 
3 23 22 21 
3 23 21 20 
3 16 20 21 
3 16 21 17 
3 17 21 22 
3 17 22 18 
3 18 22 23 
3 18 23 19 
3 19 23 20 
3 19 20 16 
3 24 25 26 
3 24 26 27 
3 31 30 29 
3 31 29 28 
3 24 28 29 
3 24 29 25 
3 25 29 30 
3 25 30 26 
3 26 30 31 
3 26 31 27 
3 27 31 28 
3 27 28 24 
3 32 33 34 
3 32 34 35 
3 39 38 37 
3 39 37 36 
3 32 36 37 
3 32 37 33 
3 33 37 38 
3 33 38 34 
3 34 38 39 
3 34 39 35 
3 35 39 36 
3 35 36 32 
3 40 41 42 
3 40 42 43 
3 47 46 45 
3 47 45 44 
3 40 44 45 
3 40 45 41 
3 41 45 46 
3 41 46 42 
3 42 46 47 
3 42 47 43 
3 43 47 44 
3 43 44 40 
3 48 49 50 
3 48 50 51 
3 55 54 53 
3 55 53 52 
3 48 52 53 
3 48 53 49 
3 49 53 54 
3 49 54 50 
3 50 54 55 
3 50 55 51 
3 51 55 52 
3 51 52 48 
3 56 57 58 
3 56 58 59 
3 63 62 61 
3 63 61 60 
3 56 60 61 
3 56 61 57 
3 57 61 62 
3 57 62 58 
3 58 62 63 
3 58 63 59 
3 59 63 60 
3 59 60 56 
3 64 65 66 
3 64 66 67 
3 71 70 69 
3 71 69 68 
3 64 68 69 
3 64 69 65 
3 65 69 70 
3 65 70 66 
3 66 70 71 
3 66 71 67 
3 67 71 68 
3 67 68 64 
3 72 73 74 
3 72 74 75 
3 79 78 77 
3 79 77 76 
3 72 76 77 
3 72 77 73 
3 73 77 78 
3 73 78 74 
3 74 78 79 
3 74 79 75 
3 75 79 76 
3 75 76 72 
3 80 81 82 
3 80 82 83 
3 87 86 85 
3 87 85 84 
3 80 84 85 
3 80 85 81 
3 81 85 86 
3 81 86 82 
3 82 86 87 
3 82 87 83 
3 83 87 84 
3 83 84 80 
3 88 89 90 
3 88 90 91 
3 95 94 93 
3 95 93 92 
3 88 92 93 
3 88 93 89 
3 89 93 94 
3 89 94 90 
3 90 94 95 
3 90 95 91 
3 91 95 92 
3 91 92 88 
3 96 97 98 
3 96 98 99 
3 103 102 101 
3 103 101 100 
3 96 100 101 
3 96 101 97 
3 97 101 102 
3 97 102 98 
3 98 102 103 
3 98 103 99 
3 99 103 100 
3 99 100 96 
3 104 105 106 
3 104 106 107 
3 111 110 109 
3 111 109 108 
3 104 108 109 
3 104 109 105 
3 105 109 110 
3 105 110 106 
3 106 110 111 
3 106 111 107 
3 107 111 108 
3 107 108 104 
3 112 113 114 
3 112 114 115 
3 119 118 117 
3 119 117 116 
3 112 116 117 
3 112 117 113 
3 113 117 118 
3 113 118 114 
3 114 118 119 
3 114 119 115 
3 115 119 116 
3 115 116 112 
3 120 121 122 
3 120 122 123 
3 127 126 125 
3 127 125 124 
3 120 124 125 
3 120 125 121 
3 121 125 126 
3 121 126 122 
3 122 126 127 
3 122 127 123 
3 123 127 124 
3 123 124 120 
