ply
format ascii 1.0
element vertex 488
property float x      
property float y           
property float z 
element face 732  
property list uchar int vertex_index
end_header
1.2883343542281351 -2.387847055099595 -0.5410221249395151
1.2883343542281351 -2.387847055099595 -0.141022124939515
1.2883343542281351 -1.887847055099595 -0.141022124939515
1.2883343542281351 -1.887847055099595 -0.5410221249395151
1.7883343542281351 -2.387847055099595 -0.5410221249395151
1.7883343542281351 -2.387847055099595 -0.141022124939515
1.7883343542281351 -1.887847055099595 -0.141022124939515
1.7883343542281351 -1.887847055099595 -0.5410221249395151
1.9032461699601821 1.4512546004394853 -0.5784593294177962
1.9032461699601821 1.4512546004394853 -0.1784593294177962
1.9032461699601821 1.9512546004394853 -0.1784593294177962
1.9032461699601821 1.9512546004394853 -0.5784593294177962
2.403246169960182 1.4512546004394853 -0.5784593294177962
2.403246169960182 1.4512546004394853 -0.1784593294177962
2.403246169960182 1.9512546004394853 -0.1784593294177962
2.403246169960182 1.9512546004394853 -0.5784593294177962
0.060605202866047425 -2.0315223437524894 -0.23591488009148848
0.060605202866047425 -2.0315223437524894 0.16408511990851155
0.060605202866047425 -1.5315223437524892 0.16408511990851155
0.060605202866047425 -1.5315223437524892 -0.23591488009148848
0.5606052028660474 -2.0315223437524894 -0.23591488009148848
0.5606052028660474 -2.0315223437524894 0.16408511990851155
0.5606052028660474 -1.5315223437524892 0.16408511990851155
0.5606052028660474 -1.5315223437524892 -0.23591488009148848
0.45399691898862804 -2.821850300034109 -0.48109603466601863
0.45399691898862804 -2.821850300034109 -0.08109603466601861
0.45399691898862804 -2.321850300034109 -0.08109603466601861
0.45399691898862804 -2.321850300034109 -0.48109603466601863
0.953996918988628 -2.821850300034109 -0.48109603466601863
0.953996918988628 -2.821850300034109 -0.08109603466601861
0.953996918988628 -2.321850300034109 -0.08109603466601861
0.953996918988628 -2.321850300034109 -0.48109603466601863
0.7160490685471623 1.7606276242331464 -0.333359420668651
0.7160490685471623 1.7606276242331464 0.06664057933134904
0.7160490685471623 2.2606276242331464 0.06664057933134904
0.7160490685471623 2.2606276242331464 -0.333359420668651
1.2160490685471623 1.7606276242331464 -0.333359420668651
1.2160490685471623 1.7606276242331464 0.06664057933134904
1.2160490685471623 2.2606276242331464 0.06664057933134904
1.2160490685471623 2.2606276242331464 -0.333359420668651
2.6023878973441725 -0.3063891558185512 -0.5121725850606202
2.6023878973441725 -0.3063891558185512 -0.11217258506062028
2.6023878973441725 0.1936108441814488 -0.11217258506062028
2.6023878973441725 0.1936108441814488 -0.5121725850606202
3.1023878973441725 -0.3063891558185512 -0.5121725850606202
3.1023878973441725 -0.3063891558185512 -0.11217258506062028
3.1023878973441725 0.1936108441814488 -0.11217258506062028
3.1023878973441725 0.1936108441814488 -0.5121725850606202
1.4279921696267563 -2.047624838148532 -0.2621846994408374
1.4279921696267563 -2.047624838148532 0.13781530055916263
1.4279921696267563 -1.5476248381485318 0.13781530055916263
1.4279921696267563 -1.5476248381485318 -0.2621846994408374
1.9279921696267563 -2.047624838148532 -0.2621846994408374
1.9279921696267563 -2.047624838148532 0.13781530055916263
1.9279921696267563 -1.5476248381485318 0.13781530055916263
1.9279921696267563 -1.5476248381485318 -0.2621846994408374
0.0025111536324977646 -1.2838449045418583 -0.5470707023372388
0.0025111536324977646 -1.2838449045418583 -0.14707070233723868
0.0025111536324977646 -0.7838449045418583 -0.14707070233723868
0.0025111536324977646 -0.7838449045418583 -0.5470707023372388
0.5025111536324978 -1.2838449045418583 -0.5470707023372388
0.5025111536324978 -1.2838449045418583 -0.14707070233723868
0.5025111536324978 -0.7838449045418583 -0.14707070233723868
0.5025111536324978 -0.7838449045418583 -0.5470707023372388
0.9769834680222371 1.0429732573586605 -0.5460427859286162
0.9769834680222371 1.0429732573586605 -0.1460427859286162
0.9769834680222371 1.5429732573586605 -0.1460427859286162
0.9769834680222371 1.5429732573586605 -0.5460427859286162
1.4769834680222371 1.0429732573586605 -0.5460427859286162
1.4769834680222371 1.0429732573586605 -0.1460427859286162
1.4769834680222371 1.5429732573586605 -0.1460427859286162
1.4769834680222371 1.5429732573586605 -0.5460427859286162
0.9613337153418717 1.0272638596345818 -0.524080185962295
0.9613337153418717 1.0272638596345818 -0.12408018596229503
0.9613337153418717 1.5272638596345818 -0.12408018596229503
0.9613337153418717 1.5272638596345818 -0.524080185962295
1.4613337153418717 1.0272638596345818 -0.524080185962295
1.4613337153418717 1.0272638596345818 -0.12408018596229503
1.4613337153418717 1.5272638596345818 -0.12408018596229503
1.4613337153418717 1.5272638596345818 -0.524080185962295
1.3460168290690233 0.7920668310789534 -0.4137318268825352
1.3460168290690233 0.7920668310789534 -0.01373182688253513
1.3460168290690233 1.2920668310789534 -0.01373182688253513
1.3460168290690233 1.2920668310789534 -0.4137318268825352
1.8460168290690233 0.7920668310789534 -0.4137318268825352
1.8460168290690233 0.7920668310789534 -0.01373182688253513
1.8460168290690233 1.2920668310789534 -0.01373182688253513
1.8460168290690233 1.2920668310789534 -0.4137318268825352
1.8421424591906312 -1.3579738981316105 -0.20205411625356645
1.8421424591906312 -1.3579738981316105 0.19794588374643357
1.8421424591906312 -0.8579738981316105 0.19794588374643357
1.8421424591906312 -0.8579738981316105 -0.20205411625356645
2.3421424591906312 -1.3579738981316105 -0.20205411625356645
2.3421424591906312 -1.3579738981316105 0.19794588374643357
2.3421424591906312 -0.8579738981316105 0.19794588374643357
2.3421424591906312 -0.8579738981316105 -0.20205411625356645
1.1862114000498227 1.588647690927056 -0.321101472316715
1.1862114000498227 1.588647690927056 0.07889852768328504
1.1862114000498227 2.088647690927056 0.07889852768328504
1.1862114000498227 2.088647690927056 -0.321101472316715
1.6862114000498227 1.588647690927056 -0.321101472316715
1.6862114000498227 1.588647690927056 0.07889852768328504
1.6862114000498227 2.088647690927056 0.07889852768328504
1.6862114000498227 2.088647690927056 -0.321101472316715
-0.11021797212784334 -0.3829195716023497 -0.4385558711061495
-0.11021797212784334 -0.3829195716023497 -0.0385558711061495
-0.11021797212784334 0.11708042839765032 -0.0385558711061495
-0.11021797212784334 0.11708042839765032 -0.4385558711061495
0.38978202787215666 -0.3829195716023497 -0.4385558711061495
0.38978202787215666 -0.3829195716023497 -0.0385558711061495
0.38978202787215666 0.11708042839765032 -0.0385558711061495
0.38978202787215666 0.11708042839765032 -0.4385558711061495
-0.19157733759249485 2.229863269841995 -0.4190105517359866
-0.19157733759249485 2.229863269841995 -0.01901055173598659
-0.19157733759249485 2.729863269841995 -0.01901055173598659
-0.19157733759249485 2.729863269841995 -0.4190105517359866
0.30842266240750515 2.229863269841995 -0.4190105517359866
0.30842266240750515 2.229863269841995 -0.01901055173598659
0.30842266240750515 2.729863269841995 -0.01901055173598659
0.30842266240750515 2.729863269841995 -0.4190105517359866
1.8873689123311728 -1.1008456588694866 -0.5064840622307585
1.8873689123311728 -1.1008456588694866 -0.1064840622307584
1.8873689123311728 -0.6008456588694866 -0.1064840622307584
1.8873689123311728 -0.6008456588694866 -0.5064840622307585
2.3873689123311728 -1.1008456588694866 -0.5064840622307585
2.3873689123311728 -1.1008456588694866 -0.1064840622307584
2.3873689123311728 -0.6008456588694866 -0.1064840622307584
2.3873689123311728 -0.6008456588694866 -0.5064840622307585
0.7128122716897662 -1.3164827630428475 -0.42510166039784403
0.7128122716897662 -1.3164827630428475 -0.025101660397844006
0.7128122716897662 -0.8164827630428475 -0.025101660397844006
0.7128122716897662 -0.8164827630428475 -0.42510166039784403
1.2128122716897662 -1.3164827630428475 -0.42510166039784403
1.2128122716897662 -1.3164827630428475 -0.025101660397844006
1.2128122716897662 -0.8164827630428475 -0.025101660397844006
1.2128122716897662 -0.8164827630428475 -0.42510166039784403
2.488098426256002 -1.6822104951595895 -0.5682003733689576
2.488098426256002 -1.6822104951595895 -0.1682003733689576
2.488098426256002 -1.1822104951595895 -0.1682003733689576
2.488098426256002 -1.1822104951595895 -0.5682003733689576
2.988098426256002 -1.6822104951595895 -0.5682003733689576
2.988098426256002 -1.6822104951595895 -0.1682003733689576
2.988098426256002 -1.1822104951595895 -0.1682003733689576
2.988098426256002 -1.1822104951595895 -0.5682003733689576
2.312682068620216 0.9655422394934527 -0.4261651779257418
2.312682068620216 0.9655422394934527 -0.026165177925741828
2.312682068620216 1.4655422394934527 -0.026165177925741828
2.312682068620216 1.4655422394934527 -0.4261651779257418
2.812682068620216 0.9655422394934527 -0.4261651779257418
2.812682068620216 0.9655422394934527 -0.026165177925741828
2.812682068620216 1.4655422394934527 -0.026165177925741828
2.812682068620216 1.4655422394934527 -0.4261651779257418
0.8751219168623909 -2.9880106051231166 -0.42981738824492305
0.8751219168623909 -2.9880106051231166 -0.029817388244923027
0.8751219168623909 -2.4880106051231166 -0.029817388244923027
0.8751219168623909 -2.4880106051231166 -0.42981738824492305
1.375121916862391 -2.9880106051231166 -0.42981738824492305
1.375121916862391 -2.9880106051231166 -0.029817388244923027
1.375121916862391 -2.4880106051231166 -0.029817388244923027
1.375121916862391 -2.4880106051231166 -0.42981738824492305
1.0472113721507614 -2.45474786220291 -0.5518784074068911
1.0472113721507614 -2.45474786220291 -0.15187840740689107
1.0472113721507614 -1.9547478622029102 -0.15187840740689107
1.0472113721507614 -1.9547478622029102 -0.5518784074068911
1.5472113721507614 -2.45474786220291 -0.5518784074068911
1.5472113721507614 -2.45474786220291 -0.15187840740689107
1.5472113721507614 -1.9547478622029102 -0.15187840740689107
1.5472113721507614 -1.9547478622029102 -0.5518784074068911
2.4479871900721046 0.7000990513491772 -0.27529824983520895
2.4479871900721046 0.7000990513491772 0.12470175016479107
2.4479871900721046 1.2000990513491772 0.12470175016479107
2.4479871900721046 1.2000990513491772 -0.27529824983520895
2.9479871900721046 0.7000990513491772 -0.27529824983520895
2.9479871900721046 0.7000990513491772 0.12470175016479107
2.9479871900721046 1.2000990513491772 0.12470175016479107
2.9479871900721046 1.2000990513491772 -0.27529824983520895
0.8166806509825781 1.5406824081730726 -0.5232258746770362
0.8166806509825781 1.5406824081730726 -0.1232258746770361
0.8166806509825781 2.0406824081730726 -0.1232258746770361
0.8166806509825781 2.0406824081730726 -0.5232258746770362
1.3166806509825781 1.5406824081730726 -0.5232258746770362
1.3166806509825781 1.5406824081730726 -0.1232258746770361
1.3166806509825781 2.0406824081730726 -0.1232258746770361
1.3166806509825781 2.0406824081730726 -0.5232258746770362
-0.05563719708699566 -1.39269445245332 -0.3369630928816296
-0.05563719708699566 -1.39269445245332 0.0630369071183704
-0.05563719708699566 -0.89269445245332 0.0630369071183704
-0.05563719708699566 -0.89269445245332 -0.3369630928816296
0.44436280291300434 -1.39269445245332 -0.3369630928816296
0.44436280291300434 -1.39269445245332 0.0630369071183704
0.44436280291300434 -0.89269445245332 0.0630369071183704
0.44436280291300434 -0.89269445245332 -0.3369630928816296
0.6677072980133595 -0.49775052715254287 -0.3873765204643252
0.6677072980133595 -0.49775052715254287 0.01262347953567483
0.6677072980133595 0.0022494728474571346 0.01262347953567483
0.6677072980133595 0.0022494728474571346 -0.3873765204643252
1.1677072980133594 -0.49775052715254287 -0.3873765204643252
1.1677072980133594 -0.49775052715254287 0.01262347953567483
1.1677072980133594 0.0022494728474571346 0.01262347953567483
1.1677072980133594 0.0022494728474571346 -0.3873765204643252
1.1331432116496907 1.2680215605343435 -0.5229662705761788
1.1331432116496907 1.2680215605343435 -0.12296627057617882
1.1331432116496907 1.7680215605343435 -0.12296627057617882
1.1331432116496907 1.7680215605343435 -0.5229662705761788
1.6331432116496907 1.2680215605343435 -0.5229662705761788
1.6331432116496907 1.2680215605343435 -0.12296627057617882
1.6331432116496907 1.7680215605343435 -0.12296627057617882
1.6331432116496907 1.7680215605343435 -0.5229662705761788
0.31062394567633 -2.5906839776074024 -0.49050891213122977
0.31062394567633 -2.5906839776074024 -0.09050891213122975
0.31062394567633 -2.0906839776074024 -0.09050891213122975
0.31062394567633 -2.0906839776074024 -0.49050891213122977
0.81062394567633 -2.5906839776074024 -0.49050891213122977
0.81062394567633 -2.5906839776074024 -0.09050891213122975
0.81062394567633 -2.0906839776074024 -0.09050891213122975
0.81062394567633 -2.0906839776074024 -0.49050891213122977
-0.2348923693527406 -0.8052527011041439 -0.506483222459813
-0.2348923693527406 -0.8052527011041439 -0.10648322245981301
-0.2348923693527406 -0.30525270110414393 -0.10648322245981301
-0.2348923693527406 -0.30525270110414393 -0.506483222459813
0.2651076306472594 -0.8052527011041439 -0.506483222459813
0.2651076306472594 -0.8052527011041439 -0.10648322245981301
0.2651076306472594 -0.30525270110414393 -0.10648322245981301
0.2651076306472594 -0.30525270110414393 -0.506483222459813
1.7597026001827332 0.21186458201134117 -0.4832993217547897
1.7597026001827332 0.21186458201134117 -0.08329932175478966
1.7597026001827332 0.7118645820113412 -0.08329932175478966
1.7597026001827332 0.7118645820113412 -0.4832993217547897
2.259702600182733 0.21186458201134117 -0.4832993217547897
2.259702600182733 0.21186458201134117 -0.08329932175478966
2.259702600182733 0.7118645820113412 -0.08329932175478966
2.259702600182733 0.7118645820113412 -0.4832993217547897
1.400974288578111 -2.2133406230854304 -0.40485762031005096
1.400974288578111 -2.2133406230854304 -0.004857620310050936
1.400974288578111 -1.7133406230854304 -0.004857620310050936
1.400974288578111 -1.7133406230854304 -0.40485762031005096
1.900974288578111 -2.2133406230854304 -0.40485762031005096
1.900974288578111 -2.2133406230854304 -0.004857620310050936
1.900974288578111 -1.7133406230854304 -0.004857620310050936
1.900974288578111 -1.7133406230854304 -0.40485762031005096
1.366853891747108 1.3630679657036007 -0.2171061691733987
1.366853891747108 1.3630679657036007 0.18289383082660132
1.366853891747108 1.8630679657036007 0.18289383082660132
1.366853891747108 1.8630679657036007 -0.2171061691733987
1.866853891747108 1.3630679657036007 -0.2171061691733987
1.866853891747108 1.3630679657036007 0.18289383082660132
1.866853891747108 1.8630679657036007 0.18289383082660132
1.866853891747108 1.8630679657036007 -0.2171061691733987
0.6861552251423919 -1.7776508757712588 -0.5536980208800661
0.6861552251423919 -1.7776508757712588 -0.15369802088006612
0.6861552251423919 -1.2776508757712588 -0.15369802088006612
0.6861552251423919 -1.2776508757712588 -0.5536980208800661
1.186155225142392 -1.7776508757712588 -0.5536980208800661
1.186155225142392 -1.7776508757712588 -0.15369802088006612
1.186155225142392 -1.2776508757712588 -0.15369802088006612
1.186155225142392 -1.2776508757712588 -0.5536980208800661
0.3254865119799617 -1.6347675421536068 -0.3631930699436231
0.3254865119799617 -1.6347675421536068 0.03680693005637692
0.3254865119799617 -1.1347675421536068 0.03680693005637692
0.3254865119799617 -1.1347675421536068 -0.3631930699436231
0.8254865119799617 -1.6347675421536068 -0.3631930699436231
0.8254865119799617 -1.6347675421536068 0.03680693005637692
0.8254865119799617 -1.1347675421536068 0.03680693005637692
0.8254865119799617 -1.1347675421536068 -0.3631930699436231
1.7661030248864331 2.1317198207269854 -0.42006165969718917
1.7661030248864331 2.1317198207269854 -0.02006165969718915
1.7661030248864331 2.6317198207269854 -0.02006165969718915
1.7661030248864331 2.6317198207269854 -0.42006165969718917
2.266103024886433 2.1317198207269854 -0.42006165969718917
2.266103024886433 2.1317198207269854 -0.02006165969718915
2.266103024886433 2.6317198207269854 -0.02006165969718915
2.266103024886433 2.6317198207269854 -0.42006165969718917
2.235734972842444 -2.681640343530221 -0.5345789688303064
2.235734972842444 -2.681640343530221 -0.1345789688303064
2.235734972842444 -2.181640343530221 -0.1345789688303064
2.235734972842444 -2.181640343530221 -0.5345789688303064
2.735734972842444 -2.681640343530221 -0.5345789688303064
2.735734972842444 -2.681640343530221 -0.1345789688303064
2.735734972842444 -2.181640343530221 -0.1345789688303064
2.735734972842444 -2.181640343530221 -0.5345789688303064
1.082441417261494 0.20226615927620095 -0.292828044903998
1.082441417261494 0.20226615927620095 0.10717195509600203
1.082441417261494 0.702266159276201 0.10717195509600203
1.082441417261494 0.702266159276201 -0.292828044903998
1.582441417261494 0.20226615927620095 -0.292828044903998
1.582441417261494 0.20226615927620095 0.10717195509600203
1.582441417261494 0.702266159276201 0.10717195509600203
1.582441417261494 0.702266159276201 -0.292828044903998
1.7344635767108203 1.3360492095556626 -0.5616933910276468
1.7344635767108203 1.3360492095556626 -0.1616933910276468
1.7344635767108203 1.8360492095556626 -0.1616933910276468
1.7344635767108203 1.8360492095556626 -0.5616933910276468
2.2344635767108203 1.3360492095556626 -0.5616933910276468
2.2344635767108203 1.3360492095556626 -0.1616933910276468
2.2344635767108203 1.8360492095556626 -0.1616933910276468
2.2344635767108203 1.8360492095556626 -0.5616933910276468
0.5378200189204698 1.2429058005451914 -0.22506327341243554
0.5378200189204698 1.2429058005451914 0.17493672658756448
0.5378200189204698 1.7429058005451914 0.17493672658756448
0.5378200189204698 1.7429058005451914 -0.22506327341243554
1.0378200189204698 1.2429058005451914 -0.22506327341243554
1.0378200189204698 1.2429058005451914 0.17493672658756448
1.0378200189204698 1.7429058005451914 0.17493672658756448
1.0378200189204698 1.7429058005451914 -0.22506327341243554
2.6944600229321525 -0.1903640558151789 -0.3106711324649906
2.6944600229321525 -0.1903640558151789 0.0893288675350094
2.6944600229321525 0.3096359441848211 0.0893288675350094
2.6944600229321525 0.3096359441848211 -0.3106711324649906
3.1944600229321525 -0.1903640558151789 -0.3106711324649906
3.1944600229321525 -0.1903640558151789 0.0893288675350094
3.1944600229321525 0.3096359441848211 0.0893288675350094
3.1944600229321525 0.3096359441848211 -0.3106711324649906
-0.13383608859028362 0.307240776756434 -0.5681362394961187
-0.13383608859028362 0.307240776756434 -0.16813623949611867
-0.13383608859028362 0.807240776756434 -0.16813623949611867
-0.13383608859028362 0.807240776756434 -0.5681362394961187
0.3661639114097164 0.307240776756434 -0.5681362394961187
0.3661639114097164 0.307240776756434 -0.16813623949611867
0.3661639114097164 0.807240776756434 -0.16813623949611867
0.3661639114097164 0.807240776756434 -0.5681362394961187
2.260612651525467 2.29806458804872 -0.355113244679357
2.260612651525467 2.29806458804872 0.04488675532064304
2.260612651525467 2.79806458804872 0.04488675532064304
2.260612651525467 2.79806458804872 -0.355113244679357
2.760612651525467 2.29806458804872 -0.355113244679357
2.760612651525467 2.29806458804872 0.04488675532064304
2.760612651525467 2.79806458804872 0.04488675532064304
2.760612651525467 2.79806458804872 -0.355113244679357
2.0464589686949863 0.22184167074003058 -0.5566296794894094
2.0464589686949863 0.22184167074003058 -0.15662967948940937
2.0464589686949863 0.7218416707400306 -0.15662967948940937
2.0464589686949863 0.7218416707400306 -0.5566296794894094
2.5464589686949863 0.22184167074003058 -0.5566296794894094
2.5464589686949863 0.22184167074003058 -0.15662967948940937
2.5464589686949863 0.7218416707400306 -0.15662967948940937
2.5464589686949863 0.7218416707400306 -0.5566296794894094
0.5057297101439454 -0.4431880141895581 -0.5221415957515374
0.5057297101439454 -0.4431880141895581 -0.12214159575153744
0.5057297101439454 0.05681198581044189 -0.12214159575153744
0.5057297101439454 0.05681198581044189 -0.5221415957515374
1.0057297101439455 -0.4431880141895581 -0.5221415957515374
1.0057297101439455 -0.4431880141895581 -0.12214159575153744
1.0057297101439455 0.05681198581044189 -0.12214159575153744
1.0057297101439455 0.05681198581044189 -0.5221415957515374
0.10759280551762807 -0.6264441315164264 -0.43542869405822815
0.10759280551762807 -0.6264441315164264 -0.035428694058228155
0.10759280551762807 -0.12644413151642642 -0.035428694058228155
0.10759280551762807 -0.12644413151642642 -0.43542869405822815
0.6075928055176281 -0.6264441315164264 -0.43542869405822815
0.6075928055176281 -0.6264441315164264 -0.035428694058228155
0.6075928055176281 -0.12644413151642642 -0.035428694058228155
0.6075928055176281 -0.12644413151642642 -0.43542869405822815
2.4077951042363925 1.6489996250387797 -0.5670976326752606
2.4077951042363925 1.6489996250387797 -0.16709763267526057
2.4077951042363925 2.1489996250387797 -0.16709763267526057
2.4077951042363925 2.1489996250387797 -0.5670976326752606
2.9077951042363925 1.6489996250387797 -0.5670976326752606
2.9077951042363925 1.6489996250387797 -0.16709763267526057
2.9077951042363925 2.1489996250387797 -0.16709763267526057
2.9077951042363925 2.1489996250387797 -0.5670976326752606
1.1585785315822874 1.3642662621550539 -0.4790512723953307
1.1585785315822874 1.3642662621550539 -0.07905127239533066
1.1585785315822874 1.8642662621550539 -0.07905127239533066
1.1585785315822874 1.8642662621550539 -0.4790512723953307
1.6585785315822874 1.3642662621550539 -0.4790512723953307
1.6585785315822874 1.3642662621550539 -0.07905127239533066
1.6585785315822874 1.8642662621550539 -0.07905127239533066
1.6585785315822874 1.8642662621550539 -0.4790512723953307
0.4407341847448787 -1.3623907196432463 -0.46628943797194616
0.4407341847448787 -1.3623907196432463 -0.06628943797194614
0.4407341847448787 -0.8623907196432463 -0.06628943797194614
0.4407341847448787 -0.8623907196432463 -0.46628943797194616
0.9407341847448787 -1.3623907196432463 -0.46628943797194616
0.9407341847448787 -1.3623907196432463 -0.06628943797194614
0.9407341847448787 -0.8623907196432463 -0.06628943797194614
0.9407341847448787 -0.8623907196432463 -0.46628943797194616
1.1900987836557473 -0.7188499694314832 -0.35111971930256
1.1900987836557473 -0.7188499694314832 0.04888028069744005
1.1900987836557473 -0.21884996943148316 0.04888028069744005
1.1900987836557473 -0.21884996943148316 -0.35111971930256
1.6900987836557473 -0.7188499694314832 -0.35111971930256
1.6900987836557473 -0.7188499694314832 0.04888028069744005
1.6900987836557473 -0.21884996943148316 0.04888028069744005
1.6900987836557473 -0.21884996943148316 -0.35111971930256
2.5329740330324335 1.8428169292815664 -0.48932802738778325
2.5329740330324335 1.8428169292815664 -0.08932802738778323
2.5329740330324335 2.3428169292815664 -0.08932802738778323
2.5329740330324335 2.3428169292815664 -0.48932802738778325
3.0329740330324335 1.8428169292815664 -0.48932802738778325
3.0329740330324335 1.8428169292815664 -0.08932802738778323
3.0329740330324335 2.3428169292815664 -0.08932802738778323
3.0329740330324335 2.3428169292815664 -0.48932802738778325
1.181523446659667 0.4584582156887742 -0.20059212707878404
1.181523446659667 0.4584582156887742 0.19940787292121598
1.181523446659667 0.9584582156887742 0.19940787292121598
1.181523446659667 0.9584582156887742 -0.20059212707878404
1.681523446659667 0.4584582156887742 -0.20059212707878404
1.681523446659667 0.4584582156887742 0.19940787292121598
1.681523446659667 0.9584582156887742 0.19940787292121598
1.681523446659667 0.9584582156887742 -0.20059212707878404
2.626787163819493 1.5009767415635125 -0.5184708402658935
2.626787163819493 1.5009767415635125 -0.11847084026589355
2.626787163819493 2.0009767415635125 -0.11847084026589355
2.626787163819493 2.0009767415635125 -0.5184708402658935
3.126787163819493 1.5009767415635125 -0.5184708402658935
3.126787163819493 1.5009767415635125 -0.11847084026589355
3.126787163819493 2.0009767415635125 -0.11847084026589355
3.126787163819493 2.0009767415635125 -0.5184708402658935
2.3360335781312096 -1.0539091486826888 -0.5419784291545217
2.3360335781312096 -1.0539091486826888 -0.14197842915452163
2.3360335781312096 -0.5539091486826888 -0.14197842915452163
2.3360335781312096 -0.5539091486826888 -0.5419784291545217
2.8360335781312096 -1.0539091486826888 -0.5419784291545217
2.8360335781312096 -1.0539091486826888 -0.14197842915452163
2.8360335781312096 -0.5539091486826888 -0.14197842915452163
2.8360335781312096 -0.5539091486826888 -0.5419784291545217
0.4234552772406329 -0.14099710471151994 -0.3269186734053724
0.4234552772406329 -0.14099710471151994 0.07308132659462763
0.4234552772406329 0.35900289528848006 0.07308132659462763
0.4234552772406329 0.35900289528848006 -0.3269186734053724
0.9234552772406329 -0.14099710471151994 -0.3269186734053724
0.9234552772406329 -0.14099710471151994 0.07308132659462763
0.9234552772406329 0.35900289528848006 0.07308132659462763
0.9234552772406329 0.35900289528848006 -0.3269186734053724
1.6545651589434043 1.9912667215118613 -0.3349908965585082
1.6545651589434043 1.9912667215118613 0.0650091034414918
1.6545651589434043 2.4912667215118613 0.0650091034414918
1.6545651589434043 2.4912667215118613 -0.3349908965585082
2.154565158943404 1.9912667215118613 -0.3349908965585082
2.154565158943404 1.9912667215118613 0.0650091034414918
2.154565158943404 2.4912667215118613 0.0650091034414918
2.154565158943404 2.4912667215118613 -0.3349908965585082
1.2637489750435071 0.48840609228629006 -0.4361867964826811
1.2637489750435071 0.48840609228629006 -0.03618679648268111
1.2637489750435071 0.9884060922862901 -0.03618679648268111
1.2637489750435071 0.9884060922862901 -0.4361867964826811
1.7637489750435071 0.48840609228629006 -0.4361867964826811
1.7637489750435071 0.48840609228629006 -0.03618679648268111
1.7637489750435071 0.9884060922862901 -0.03618679648268111
1.7637489750435071 0.9884060922862901 -0.4361867964826811
0.14771464901737996 -1.0422652748263133 -0.5984260006963228
0.14771464901737996 -1.0422652748263133 -0.19842600069632277
0.14771464901737996 -0.5422652748263133 -0.19842600069632277
0.14771464901737996 -0.5422652748263133 -0.5984260006963228
0.64771464901738 -1.0422652748263133 -0.5984260006963228
0.64771464901738 -1.0422652748263133 -0.19842600069632277
0.64771464901738 -0.5422652748263133 -0.19842600069632277
0.64771464901738 -0.5422652748263133 -0.5984260006963228
2.594927481369102 -2.0378667388400253 -0.3039840326700149
2.594927481369102 -2.0378667388400253 0.09601596732998513
2.594927481369102 -1.5378667388400253 0.09601596732998513
2.594927481369102 -1.5378667388400253 -0.3039840326700149
3.094927481369102 -2.0378667388400253 -0.3039840326700149
3.094927481369102 -2.0378667388400253 0.09601596732998513
3.094927481369102 -1.5378667388400253 0.09601596732998513
3.094927481369102 -1.5378667388400253 -0.3039840326700149
2.5263969056288205 2.5439429637468383 -0.4763987703883571
2.5263969056288205 2.5439429637468383 -0.07639877038835707
2.5263969056288205 3.0439429637468383 -0.07639877038835707
2.5263969056288205 3.0439429637468383 -0.4763987703883571
3.0263969056288205 2.5439429637468383 -0.4763987703883571
3.0263969056288205 2.5439429637468383 -0.07639877038835707
3.0263969056288205 3.0439429637468383 -0.07639877038835707
3.0263969056288205 3.0439429637468383 -0.4763987703883571
0.18230478746392065 0.7314085343524099 -0.5864813642889573
0.18230478746392065 0.7314085343524099 -0.18648136428895729
0.18230478746392065 1.23140853435241 -0.18648136428895729
0.18230478746392065 1.23140853435241 -0.5864813642889573
0.6823047874639206 0.7314085343524099 -0.5864813642889573
0.6823047874639206 0.7314085343524099 -0.18648136428895729
0.6823047874639206 1.23140853435241 -0.18648136428895729
0.6823047874639206 1.23140853435241 -0.5864813642889573
1.8629801492521088 -0.1808012102594283 -0.473548628260357
1.8629801492521088 -0.1808012102594283 -0.07354862826035696
1.8629801492521088 0.3191987897405717 -0.07354862826035696
1.8629801492521088 0.3191987897405717 -0.473548628260357
2.3629801492521088 -0.1808012102594283 -0.473548628260357
2.3629801492521088 -0.1808012102594283 -0.07354862826035696
2.3629801492521088 0.3191987897405717 -0.07354862826035696
2.3629801492521088 0.3191987897405717 -0.473548628260357
-3.5 -3.5 -0.2
-3.5 -3.5 0.0
-3.5 3.5 0.0
-3.5 3.5 -0.2
3.5 -3.5 -0.2
3.5 -3.5 0.0
3.5 3.5 0.0
3.5 3.5 -0.2
3 0 1 2 
3 0 2 3 
3 7 6 5 
3 7 5 4 
3 0 4 5 
3 0 5 1 
3 1 5 6 
3 1 6 2 
3 2 6 7 
3 2 7 3 
3 3 7 4 
3 3 4 0 
3 8 9 10 
3 8 10 11 
3 15 14 13 
3 15 13 12 
3 8 12 13 
3 8 13 9 
3 9 13 14 
3 9 14 10 
3 10 14 15 
3 10 15 11 
3 11 15 12 
3 11 12 8 
3 16 17 18 
3 16 18 19 
3 23 22 21 
3 23 21 20 
3 16 20 21 
3 16 21 17 
3 17 21 22 
3 17 22 18 
3 18 22 23 
3 18 23 19 
3 19 23 20 
3 19 20 16 
3 24 25 26 
3 24 26 27 
3 31 30 29 
3 31 29 28 
3 24 28 29 
3 24 29 25 
3 25 29 30 
3 25 30 26 
3 26 30 31 
3 26 31 27 
3 27 31 28 
3 27 28 24 
3 32 33 34 
3 32 34 35 
3 39 38 37 
3 39 37 36 
3 32 36 37 
3 32 37 33 
3 33 37 38 
3 33 38 34 
3 34 38 39 
3 34 39 35 
3 35 39 36 
3 35 36 32 
3 40 41 42 
3 40 42 43 
3 47 46 45 
3 47 45 44 
3 40 44 45 
3 40 45 41 
3 41 45 46 
3 41 46 42 
3 42 46 47 
3 42 47 43 
3 43 47 44 
3 43 44 40 
3 48 49 50 
3 48 50 51 
3 55 54 53 
3 55 53 52 
3 48 52 53 
3 48 53 49 
3 49 53 54 
3 49 54 50 
3 50 54 55 
3 50 55 51 
3 51 55 52 
3 51 52 48 
3 56 57 58 
3 56 58 59 
3 63 62 61 
3 63 61 60 
3 56 60 61 
3 56 61 57 
3 57 61 62 
3 57 62 58 
3 58 62 63 
3 58 63 59 
3 59 63 60 
3 59 60 56 
3 64 65 66 
3 64 66 67 
3 71 70 69 
3 71 69 68 
3 64 68 69 
3 64 69 65 
3 65 69 70 
3 65 70 66 
3 66 70 71 
3 66 71 67 
3 67 71 68 
3 67 68 64 
3 72 73 74 
3 72 74 75 
3 79 78 77 
3 79 77 76 
3 72 76 77 
3 72 77 73 
3 73 77 78 
3 73 78 74 
3 74 78 79 
3 74 79 75 
3 75 79 76 
3 75 76 72 
3 80 81 82 
3 80 82 83 
3 87 86 85 
3 87 85 84 
3 80 84 85 
3 80 85 81 
3 81 85 86 
3 81 86 82 
3 82 86 87 
3 82 87 83 
3 83 87 84 
3 83 84 80 
3 88 89 90 
3 88 90 91 
3 95 94 93 
3 95 93 92 
3 88 92 93 
3 88 93 89 
3 89 93 94 
3 89 94 90 
3 90 94 95 
3 90 95 91 
3 91 95 92 
3 91 92 88 
3 96 97 98 
3 96 98 99 
3 103 102 101 
3 103 101 100 
3 96 100 101 
3 96 101 97 
3 97 101 102 
3 97 102 98 
3 98 102 103 
3 98 103 99 
3 99 103 100 
3 99 100 96 
3 104 105 106 
3 104 106 107 
3 111 110 109 
3 111 109 108 
3 104 108 109 
3 104 109 105 
3 105 109 110 
3 105 110 106 
3 106 110 111 
3 106 111 107 
3 107 111 108 
3 107 108 104 
3 112 113 114 
3 112 114 115 
3 119 118 117 
3 119 117 116 
3 112 116 117 
3 112 117 113 
3 113 117 118 
3 113 118 114 
3 114 118 119 
3 114 119 115 
3 115 119 116 
3 115 116 112 
3 120 121 122 
3 120 122 123 
3 127 126 125 
3 127 125 124 
3 120 124 125 
3 120 125 121 
3 121 125 126 
3 121 126 122 
3 122 126 127 
3 122 127 123 
3 123 127 124 
3 123 124 120 
3 128 129 130 
3 128 130 131 
3 135 134 133 
3 135 133 132 
3 128 132 133 
3 128 133 129 
3 129 133 134 
3 129 134 130 
3 130 134 135 
3 130 135 131 
3 131 135 132 
3 131 132 128 
3 136 137 138 
3 136 138 139 
3 143 142 141 
3 143 141 140 
3 136 140 141 
3 136 141 137 
3 137 141 142 
3 137 142 138 
3 138 142 143 
3 138 143 139 
3 139 143 140 
3 139 140 136 
3 144 145 146 
3 144 146 147 
3 151 150 149 
3 151 149 148 
3 144 148 149 
3 144 149 145 
3 145 149 150 
3 145 150 146 
3 146 150 151 
3 146 151 147 
3 147 151 148 
3 147 148 144 
3 152 153 154 
3 152 154 155 
3 159 158 157 
3 159 157 156 
3 152 156 157 
3 152 157 153 
3 153 157 158 
3 153 158 154 
3 154 158 159 
3 154 159 155 
3 155 159 156 
3 155 156 152 
3 160 161 162 
3 160 162 163 
3 167 166 165 
3 167 165 164 
3 160 164 165 
3 160 165 161 
3 161 165 166 
3 161 166 162 
3 162 166 167 
3 162 167 163 
3 163 167 164 
3 163 164 160 
3 168 169 170 
3 168 170 171 
3 175 174 173 
3 175 173 172 
3 168 172 173 
3 168 173 169 
3 169 173 174 
3 169 174 170 
3 170 174 175 
3 170 175 171 
3 171 175 172 
3 171 172 168 
3 176 177 178 
3 176 178 179 
3 183 182 181 
3 183 181 180 
3 176 180 181 
3 176 181 177 
3 177 181 182 
3 177 182 178 
3 178 182 183 
3 178 183 179 
3 179 183 180 
3 179 180 176 
3 184 185 186 
3 184 186 187 
3 191 190 189 
3 191 189 188 
3 184 188 189 
3 184 189 185 
3 185 189 190 
3 185 190 186 
3 186 190 191 
3 186 191 187 
3 187 191 188 
3 187 188 184 
3 192 193 194 
3 192 194 195 
3 199 198 197 
3 199 197 196 
3 192 196 197 
3 192 197 193 
3 193 197 198 
3 193 198 194 
3 194 198 199 
3 194 199 195 
3 195 199 196 
3 195 196 192 
3 200 201 202 
3 200 202 203 
3 207 206 205 
3 207 205 204 
3 200 204 205 
3 200 205 201 
3 201 205 206 
3 201 206 202 
3 202 206 207 
3 202 207 203 
3 203 207 204 
3 203 204 200 
3 208 209 210 
3 208 210 211 
3 215 214 213 
3 215 213 212 
3 208 212 213 
3 208 213 209 
3 209 213 214 
3 209 214 210 
3 210 214 215 
3 210 215 211 
3 211 215 212 
3 211 212 208 
3 216 217 218 
3 216 218 219 
3 223 222 221 
3 223 221 220 
3 216 220 221 
3 216 221 217 
3 217 221 222 
3 217 222 218 
3 218 222 223 
3 218 223 219 
3 219 223 220 
3 219 220 216 
3 224 225 226 
3 224 226 227 
3 231 230 229 
3 231 229 228 
3 224 228 229 
3 224 229 225 
3 225 229 230 
3 225 230 226 
3 226 230 231 
3 226 231 227 
3 227 231 228 
3 227 228 224 
3 232 233 234 
3 232 234 235 
3 239 238 237 
3 239 237 236 
3 232 236 237 
3 232 237 233 
3 233 237 238 
3 233 238 234 
3 234 238 239 
3 234 239 235 
3 235 239 236 
3 235 236 232 
3 240 241 242 
3 240 242 243 
3 247 246 245 
3 247 245 244 
3 240 244 245 
3 240 245 241 
3 241 245 246 
3 241 246 242 
3 242 246 247 
3 242 247 243 
3 243 247 244 
3 243 244 240 
3 248 249 250 
3 248 250 251 
3 255 254 253 
3 255 253 252 
3 248 252 253 
3 248 253 249 
3 249 253 254 
3 249 254 250 
3 250 254 255 
3 250 255 251 
3 251 255 252 
3 251 252 248 
3 256 257 258 
3 256 258 259 
3 263 262 261 
3 263 261 260 
3 256 260 261 
3 256 261 257 
3 257 261 262 
3 257 262 258 
3 258 262 263 
3 258 263 259 
3 259 263 260 
3 259 260 256 
3 264 265 266 
3 264 266 267 
3 271 270 269 
3 271 269 268 
3 264 268 269 
3 264 269 265 
3 265 269 270 
3 265 270 266 
3 266 270 271 
3 266 271 267 
3 267 271 268 
3 267 268 264 
3 272 273 274 
3 272 274 275 
3 279 278 277 
3 279 277 276 
3 272 276 277 
3 272 277 273 
3 273 277 278 
3 273 278 274 
3 274 278 279 
3 274 279 275 
3 275 279 276 
3 275 276 272 
3 280 281 282 
3 280 282 283 
3 287 286 285 
3 287 285 284 
3 280 284 285 
3 280 285 281 
3 281 285 286 
3 281 286 282 
3 282 286 287 
3 282 287 283 
3 283 287 284 
3 283 284 280 
3 288 289 290 
3 288 290 291 
3 295 294 293 
3 295 293 292 
3 288 292 293 
3 288 293 289 
3 289 293 294 
3 289 294 290 
3 290 294 295 
3 290 295 291 
3 291 295 292 
3 291 292 288 
3 296 297 298 
3 296 298 299 
3 303 302 301 
3 303 301 300 
3 296 300 301 
3 296 301 297 
3 297 301 302 
3 297 302 298 
3 298 302 303 
3 298 303 299 
3 299 303 300 
3 299 300 296 
3 304 305 306 
3 304 306 307 
3 311 310 309 
3 311 309 308 
3 304 308 309 
3 304 309 305 
3 305 309 310 
3 305 310 306 
3 306 310 311 
3 306 311 307 
3 307 311 308 
3 307 308 304 
3 312 313 314 
3 312 314 315 
3 319 318 317 
3 319 317 316 
3 312 316 317 
3 312 317 313 
3 313 317 318 
3 313 318 314 
3 314 318 319 
3 314 319 315 
3 315 319 316 
3 315 316 312 
3 320 321 322 
3 320 322 323 
3 327 326 325 
3 327 325 324 
3 320 324 325 
3 320 325 321 
3 321 325 326 
3 321 326 322 
3 322 326 327 
3 322 327 323 
3 323 327 324 
3 323 324 320 
3 328 329 330 
3 328 330 331 
3 335 334 333 
3 335 333 332 
3 328 332 333 
3 328 333 329 
3 329 333 334 
3 329 334 330 
3 330 334 335 
3 330 335 331 
3 331 335 332 
3 331 332 328 
3 336 337 338 
3 336 338 339 
3 343 342 341 
3 343 341 340 
3 336 340 341 
3 336 341 337 
3 337 341 342 
3 337 342 338 
3 338 342 343 
3 338 343 339 
3 339 343 340 
3 339 340 336 
3 344 345 346 
3 344 346 347 
3 351 350 349 
3 351 349 348 
3 344 348 349 
3 344 349 345 
3 345 349 350 
3 345 350 346 
3 346 350 351 
3 346 351 347 
3 347 351 348 
3 347 348 344 
3 352 353 354 
3 352 354 355 
3 359 358 357 
3 359 357 356 
3 352 356 357 
3 352 357 353 
3 353 357 358 
3 353 358 354 
3 354 358 359 
3 354 359 355 
3 355 359 356 
3 355 356 352 
3 360 361 362 
3 360 362 363 
3 367 366 365 
3 367 365 364 
3 360 364 365 
3 360 365 361 
3 361 365 366 
3 361 366 362 
3 362 366 367 
3 362 367 363 
3 363 367 364 
3 363 364 360 
3 368 369 370 
3 368 370 371 
3 375 374 373 
3 375 373 372 
3 368 372 373 
3 368 373 369 
3 369 373 374 
3 369 374 370 
3 370 374 375 
3 370 375 371 
3 371 375 372 
3 371 372 368 
3 376 377 378 
3 376 378 379 
3 383 382 381 
3 383 381 380 
3 376 380 381 
3 376 381 377 
3 377 381 382 
3 377 382 378 
3 378 382 383 
3 378 383 379 
3 379 383 380 
3 379 380 376 
3 384 385 386 
3 384 386 387 
3 391 390 389 
3 391 389 388 
3 384 388 389 
3 384 389 385 
3 385 389 390 
3 385 390 386 
3 386 390 391 
3 386 391 387 
3 387 391 388 
3 387 388 384 
3 392 393 394 
3 392 394 395 
3 399 398 397 
3 399 397 396 
3 392 396 397 
3 392 397 393 
3 393 397 398 
3 393 398 394 
3 394 398 399 
3 394 399 395 
3 395 399 396 
3 395 396 392 
3 400 401 402 
3 400 402 403 
3 407 406 405 
3 407 405 404 
3 400 404 405 
3 400 405 401 
3 401 405 406 
3 401 406 402 
3 402 406 407 
3 402 407 403 
3 403 407 404 
3 403 404 400 
3 408 409 410 
3 408 410 411 
3 415 414 413 
3 415 413 412 
3 408 412 413 
3 408 413 409 
3 409 413 414 
3 409 414 410 
3 410 414 415 
3 410 415 411 
3 411 415 412 
3 411 412 408 
3 416 417 418 
3 416 418 419 
3 423 422 421 
3 423 421 420 
3 416 420 421 
3 416 421 417 
3 417 421 422 
3 417 422 418 
3 418 422 423 
3 418 423 419 
3 419 423 420 
3 419 420 416 
3 424 425 426 
3 424 426 427 
3 431 430 429 
3 431 429 428 
3 424 428 429 
3 424 429 425 
3 425 429 430 
3 425 430 426 
3 426 430 431 
3 426 431 427 
3 427 431 428 
3 427 428 424 
3 432 433 434 
3 432 434 435 
3 439 438 437 
3 439 437 436 
3 432 436 437 
3 432 437 433 
3 433 437 438 
3 433 438 434 
3 434 438 439 
3 434 439 435 
3 435 439 436 
3 435 436 432 
3 440 441 442 
3 440 442 443 
3 447 446 445 
3 447 445 444 
3 440 444 445 
3 440 445 441 
3 441 445 446 
3 441 446 442 
3 442 446 447 
3 442 447 443 
3 443 447 444 
3 443 444 440 
3 448 449 450 
3 448 450 451 
3 455 454 453 
3 455 453 452 
3 448 452 453 
3 448 453 449 
3 449 453 454 
3 449 454 450 
3 450 454 455 
3 450 455 451 
3 451 455 452 
3 451 452 448 
3 456 457 458 
3 456 458 459 
3 463 462 461 
3 463 461 460 
3 456 460 461 
3 456 461 457 
3 457 461 462 
3 457 462 458 
3 458 462 463 
3 458 463 459 
3 459 463 460 
3 459 460 456 
3 464 465 466 
3 464 466 467 
3 471 470 469 
3 471 469 468 
3 464 468 469 
3 464 469 465 
3 465 469 470 
3 465 470 466 
3 466 470 471 
3 466 471 467 
3 467 471 468 
3 467 468 464 
3 472 473 474 
3 472 474 475 
3 479 478 477 
3 479 477 476 
3 472 476 477 
3 472 477 473 
3 473 477 478 
3 473 478 474 
3 474 478 479 
3 474 479 475 
3 475 479 476 
3 475 476 472 
3 480 481 482 
3 480 482 483 
3 487 486 485 
3 487 485 484 
3 480 484 485 
3 480 485 481 
3 481 485 486 
3 481 486 482 
3 482 486 487 
3 482 487 483 
3 483 487 484 
3 483 484 480 
